<svg width="38" height="24" viewBox="0 0 38 24" fill="none" xmlns="http://www.w3.org/2000/svg">
<g clip-path="url(#clip0_319_95)">
<path opacity="0.07" d="M35 0H3C1.3 0 0 1.3 0 3V21C0 22.7 1.4 24 3 24H35C36.7 24 38 22.7 38 21V3C38 1.3 36.6 0 35 0Z" fill="black"/>
<path d="M35 1C36.1 1 37 1.9 37 3V21C37 22.1 36.1 23 35 23H3C1.9 23 1 22.1 1 21V3C1 1.9 1.9 1 3 1H35Z" fill="white"/>
<path d="M9.07814 8.38819C8.70212 8.12969 8.21144 8.00012 7.60611 8.00012H5.26259C5.07702 8.00012 4.97449 8.09293 4.95502 8.27832L4.00299 14.2542C3.99309 14.3129 4.00778 14.3666 4.04691 14.4154C4.08581 14.4643 4.13475 14.4886 4.19335 14.4886H5.30651C5.50175 14.4886 5.60906 14.396 5.62876 14.2103L5.89237 12.5993C5.90199 12.5212 5.93633 12.4577 5.99493 12.4088C6.05349 12.36 6.12674 12.3281 6.21462 12.3135C6.3025 12.299 6.38537 12.2917 6.46363 12.2917C6.54166 12.2917 6.63438 12.2966 6.74196 12.3063C6.84928 12.3161 6.91768 12.3208 6.94701 12.3208C7.78671 12.3208 8.44581 12.0842 8.92436 11.6105C9.40268 11.137 9.64211 10.4803 9.64211 9.64044C9.64211 9.06435 9.45399 8.64691 9.07814 8.38801V8.38819ZM7.8698 10.1826C7.82083 10.5244 7.69404 10.7489 7.48899 10.8563C7.2839 10.9639 6.99097 11.0173 6.6102 11.0173L6.12682 11.032L6.37588 9.46477C6.39531 9.35745 6.45875 9.30373 6.56624 9.30373H6.84462C7.23501 9.30373 7.51836 9.36001 7.69413 9.47211C7.8698 9.58448 7.92841 9.8214 7.8698 10.1826Z" fill="#003087"/>
<path d="M33.8094 8H32.7256C32.6179 8 32.5545 8.05372 32.5352 8.16113L31.583 14.2543L31.5684 14.2836C31.5684 14.3326 31.5879 14.3788 31.6271 14.4228C31.6659 14.4666 31.7149 14.4886 31.7735 14.4886H32.7403C32.9256 14.4886 33.0281 14.396 33.0479 14.2104L33.9999 8.21973V8.20518C33.9999 8.0685 33.9362 8.00013 33.8094 8.00013V8Z" fill="#009CDE"/>
<path d="M20.7162 10.3585C20.7162 10.3098 20.6966 10.2633 20.6577 10.2194C20.6185 10.1755 20.5746 10.1534 20.5259 10.1534H19.3981C19.2905 10.1534 19.2026 10.2025 19.1344 10.2999L17.5818 12.5849L16.9374 10.3879C16.8883 10.2317 16.781 10.1534 16.6151 10.1534H15.5165C15.4676 10.1534 15.4236 10.1755 15.3848 10.2194C15.3456 10.2633 15.3262 10.3098 15.3262 10.3585C15.3262 10.3782 15.4214 10.6661 15.6118 11.2227C15.8021 11.7793 16.0072 12.3799 16.2269 13.0244C16.4467 13.6688 16.5613 14.0107 16.5711 14.0495C15.7704 15.1433 15.3701 15.7292 15.3701 15.8072C15.3701 15.9343 15.4336 15.9977 15.5605 15.9977H16.6883C16.7957 15.9977 16.8836 15.9489 16.952 15.8512L20.687 10.4609C20.7064 10.4415 20.7162 10.4075 20.7162 10.3584V10.3585Z" fill="#003087"/>
<path d="M31.2192 10.1535H30.106C29.9692 10.1535 29.8864 10.3146 29.8571 10.6369C29.6029 10.2465 29.1394 10.0509 28.4655 10.0509C27.7625 10.0509 27.1643 10.3146 26.6713 10.8419C26.1781 11.3692 25.9316 11.9894 25.9316 12.7021C25.9316 13.2784 26.1 13.7373 26.4369 14.0789C26.7737 14.4209 27.2253 14.5916 27.7919 14.5916C28.075 14.5916 28.363 14.5329 28.6559 14.4158C28.9489 14.2986 29.1782 14.1425 29.3444 13.9471C29.3444 13.9569 29.3345 14.0007 29.3152 14.0788C29.2955 14.1571 29.2858 14.2158 29.2858 14.2546C29.2858 14.411 29.3491 14.4889 29.4763 14.4889H30.487C30.6723 14.4889 30.7799 14.3963 30.809 14.2106L31.4096 10.3878C31.4193 10.3291 31.4047 10.2755 31.3657 10.2266C31.3265 10.178 31.2778 10.1535 31.2192 10.1535ZM29.3078 13.039C29.0588 13.2831 28.7585 13.4051 28.407 13.4051C28.1237 13.4051 27.8944 13.3272 27.7186 13.1708C27.5427 13.0149 27.4548 12.8 27.4548 12.5263C27.4548 12.1653 27.5769 11.86 27.8211 11.611C28.0649 11.3619 28.3679 11.2374 28.7292 11.2374C29.0024 11.2374 29.2295 11.318 29.4103 11.4791C29.5908 11.6402 29.6813 11.8624 29.6813 12.1456C29.6813 12.4971 29.5567 12.795 29.3078 13.039Z" fill="#009CDE"/>
<path d="M14.5806 10.1535H13.4674C13.3305 10.1535 13.2477 10.3146 13.2184 10.6369C12.9547 10.2465 12.4909 10.0509 11.8269 10.0509C11.1238 10.0509 10.5257 10.3146 10.0326 10.8419C9.53943 11.3692 9.29297 11.9894 9.29297 12.7021C9.29297 13.2784 9.46144 13.7373 9.79833 14.0789C10.1352 14.4209 10.5867 14.5916 11.1532 14.5916C11.4264 14.5916 11.7098 14.5329 12.0027 14.4158C12.2956 14.2986 12.53 14.1425 12.7057 13.9471C12.6666 14.0642 12.6471 14.1668 12.6471 14.2546C12.6471 14.411 12.7106 14.4889 12.8375 14.4889H13.8482C14.0336 14.4889 14.1411 14.3963 14.1704 14.2106L14.7709 10.3878C14.7805 10.3291 14.7659 10.2755 14.727 10.2266C14.6879 10.178 14.6392 10.1535 14.5806 10.1535ZM12.6692 13.0462C12.4201 13.2858 12.1148 13.4051 11.7537 13.4051C11.4704 13.4051 11.2434 13.3272 11.0726 13.1708C10.9016 13.0149 10.8163 12.8 10.8163 12.5263C10.8163 12.1653 10.9383 11.86 11.1825 11.611C11.4264 11.3619 11.7292 11.2374 12.0906 11.2374C12.3639 11.2374 12.5909 11.318 12.7717 11.4791C12.9522 11.6402 13.0427 11.8625 13.0427 12.1456C13.0427 12.5069 12.9182 12.8072 12.6692 13.0462Z" fill="#003087"/>
<path d="M25.7169 8.38819C25.3409 8.12969 24.8503 8.00012 24.2449 8.00012H21.9159C21.7206 8.00012 21.6131 8.09293 21.5937 8.27832L20.6417 14.2542C20.6318 14.3129 20.6464 14.3666 20.6856 14.4154C20.7243 14.4643 20.7734 14.4886 20.832 14.4886H22.033C22.1502 14.4886 22.2283 14.4252 22.2674 14.2983L22.5311 12.5993C22.5408 12.5212 22.575 12.4577 22.6336 12.4088C22.6922 12.36 22.7654 12.3281 22.8533 12.3135C22.9412 12.299 23.024 12.2917 23.1023 12.2917C23.1804 12.2917 23.2731 12.2966 23.3805 12.3063C23.488 12.3161 23.5565 12.3208 23.5856 12.3208C24.4255 12.3208 25.0844 12.0842 25.563 11.6105C26.0415 11.137 26.2807 10.4803 26.2807 9.64044C26.2808 9.06439 26.0927 8.64696 25.7169 8.38805V8.38819ZM24.2156 10.7977C24.0007 10.9441 23.6784 11.0173 23.2489 11.0173L22.7801 11.032L23.0292 9.46477C23.0485 9.35745 23.1119 9.30373 23.2195 9.30373H23.4831C23.6979 9.30373 23.8687 9.31349 23.9959 9.33296C24.1226 9.35266 24.2449 9.41351 24.362 9.51603C24.4792 9.6186 24.5378 9.76755 24.5378 9.96283C24.5378 10.3729 24.4303 10.6512 24.2156 10.7977Z" fill="#009CDE"/>
</g>
<defs>
<clipPath id="clip0_319_95">
<rect width="38" height="24" fill="white"/>
</clipPath>
</defs>
</svg>
