<svg width="38" height="24" viewBox="0 0 38 24" fill="none" xmlns="http://www.w3.org/2000/svg">
<path opacity="0.07" d="M35 0H3C1.3 0 0 1.3 0 3V21C0 22.7 1.4 24 3 24H35C36.7 24 38 22.7 38 21V3C38 1.3 36.6 0 35 0Z" fill="black"/>
<path d="M35 1C36.1 1 37 1.9 37 3V21C37 22.1 36.1 23 35 23H3C1.9 23 1 22.1 1 21V3C1 1.9 1.9 1 3 1H35Z" fill="#5433EB"/>
<g clip-path="url(#clip0_319_73)">
<mask id="mask0_319_73" style="mask-type:luminance" maskUnits="userSpaceOnUse" x="5" y="9" width="28" height="7">
<path d="M33 9.00159H5V15.726H33V9.00159Z" fill="white"/>
</mask>
<g mask="url(#mask0_319_73)">
<path d="M12.1736 11.1157C11.9491 10.6446 11.5233 10.3403 10.8818 10.3403C10.6849 10.3437 10.4914 10.3923 10.3162 10.4824C10.1411 10.5724 9.98892 10.7015 9.87156 10.8596L9.84814 10.8882V9.04182C9.84814 9.03115 9.84391 9.02092 9.83636 9.01337C9.82882 9.00583 9.81858 9.00159 9.80791 9.00159H8.90083C8.89029 9.00178 8.88025 9.0061 8.87286 9.01363C8.86547 9.02115 8.86133 9.03128 8.86133 9.04182V14.338C8.86133 14.3485 8.8655 14.3585 8.87291 14.3659C8.88031 14.3733 8.89035 14.3775 8.90083 14.3775H9.87229C9.88283 14.3775 9.89296 14.3734 9.90048 14.366C9.908 14.3586 9.91232 14.3485 9.91252 14.338V12.0798C9.91252 11.6409 10.2051 11.33 10.6733 11.33C11.1854 11.33 11.3148 11.7514 11.3148 12.1807V14.338C11.3148 14.3485 11.319 14.3585 11.3264 14.3659C11.3338 14.3733 11.3439 14.3775 11.3543 14.3775H12.3236C12.3341 14.3775 12.3443 14.3734 12.3518 14.366C12.3593 14.3586 12.3637 14.3485 12.3638 14.338V12.052C12.3638 11.9737 12.3638 11.8969 12.3536 11.8223C12.3369 11.5778 12.276 11.3383 12.1736 11.1157Z" fill="white"/>
<path d="M7.32259 11.9006C7.32259 11.9006 6.82808 11.7843 6.64594 11.7375C6.46378 11.6907 6.14557 11.5912 6.14557 11.3505C6.14557 11.1099 6.40233 11.033 6.66276 11.033C6.92318 11.033 7.21286 11.096 7.23554 11.3849C7.23645 11.3953 7.24125 11.405 7.24896 11.4121C7.25669 11.4191 7.26677 11.423 7.27723 11.4229L8.23478 11.4193C8.24042 11.4193 8.246 11.4182 8.25117 11.4159C8.25633 11.4137 8.26098 11.4104 8.26483 11.4063C8.26868 11.4022 8.27163 11.3973 8.27351 11.392C8.27538 11.3867 8.27616 11.381 8.27575 11.3754C8.2165 10.4508 7.40524 10.1201 6.6569 10.1201C5.76958 10.1201 5.12072 10.7053 5.12072 11.3505C5.12072 11.8216 5.25386 12.2635 6.30065 12.5707C6.48427 12.6241 6.73372 12.6936 6.95171 12.7543C7.21359 12.8275 7.35477 12.9379 7.35477 13.112C7.35477 13.3139 7.06217 13.4544 6.77468 13.4544C6.35845 13.4544 6.06292 13.3 6.03878 13.0228C6.03752 13.0126 6.03258 13.0033 6.02489 12.9965C6.0172 12.9898 6.00731 12.9861 5.99708 12.9862L5.04172 12.9906C5.03612 12.9906 5.03058 12.9917 5.02542 12.9939C5.02026 12.9961 5.0156 12.9993 5.01171 13.0033C5.00782 13.0073 5.00478 13.0121 5.00277 13.0173C5.00076 13.0226 4.99983 13.0281 5.00003 13.0337C5.04392 13.9064 5.88662 14.3768 6.67228 14.3768C7.8427 14.3768 8.37158 13.7184 8.37158 13.1018C8.37304 12.8121 8.30647 12.1523 7.32259 11.9006Z" fill="white"/>
<path d="M19.6414 10.3389C19.155 10.3389 18.7475 10.608 18.4849 10.9329V10.3769C18.4849 10.3665 18.4808 10.3566 18.4735 10.3492C18.4664 10.3418 18.4565 10.3376 18.4461 10.3374H17.5376C17.5272 10.3374 17.5171 10.3416 17.5097 10.349C17.5023 10.3564 17.498 10.3664 17.498 10.3769V15.5707C17.4983 15.581 17.5026 15.5909 17.51 15.5981C17.5174 15.6054 17.5273 15.6094 17.5376 15.6094H18.5098C18.52 15.6094 18.5299 15.6054 18.5372 15.5981C18.5444 15.5908 18.5485 15.5809 18.5485 15.5707V13.8633H18.5632C18.7175 14.0988 19.1396 14.3812 19.6912 14.3812C20.7284 14.3812 21.5931 13.5209 21.5931 12.3586C21.5939 11.243 20.7336 10.3389 19.6414 10.3389ZM19.5514 13.3915C19.3467 13.3966 19.145 13.3405 18.9722 13.2305C18.7995 13.1205 18.6634 12.9615 18.5813 12.7738C18.4994 12.5861 18.4751 12.3782 18.5118 12.1766C18.5484 11.9751 18.6443 11.7891 18.7871 11.6423C18.93 11.4955 19.1134 11.3946 19.3139 11.3524C19.5143 11.3103 19.7227 11.3288 19.9126 11.4057C20.1025 11.4826 20.2651 11.6143 20.3798 11.784C20.4945 11.9537 20.556 12.1537 20.5566 12.3586C20.5587 12.4925 20.5343 12.6255 20.4849 12.7499C20.4355 12.8744 20.362 12.9879 20.2686 13.0838C20.1753 13.1798 20.0638 13.2564 19.9407 13.3092C19.8176 13.362 19.6854 13.3899 19.5514 13.3915Z" fill="white"/>
<path d="M14.621 10.1106C13.7147 10.1106 13.2626 10.4186 12.8997 10.6651L12.8887 10.6724C12.8701 10.6852 12.8569 10.7046 12.8518 10.7267C12.8468 10.7488 12.8503 10.772 12.8617 10.7916L13.2201 11.409C13.2268 11.4206 13.2361 11.4305 13.247 11.4381C13.258 11.4457 13.2706 11.4507 13.2838 11.4529C13.2967 11.4553 13.3099 11.4547 13.3226 11.4513C13.3352 11.4479 13.347 11.4417 13.357 11.4332L13.3854 11.4098C13.572 11.2532 13.8712 11.044 14.5954 10.9869C14.9984 10.9548 15.3467 11.0601 15.6034 11.3C15.8858 11.5605 16.0548 11.9811 16.0548 12.4251C16.0548 13.2422 15.5734 13.7557 14.8002 13.766C14.163 13.7623 13.7351 13.4302 13.7351 12.9394C13.7351 12.6789 13.8529 12.5092 14.0826 12.3395C14.1001 12.327 14.1125 12.3085 14.1175 12.2875C14.1225 12.2666 14.1197 12.2445 14.1097 12.2254L13.7878 11.6168C13.7819 11.6059 13.7738 11.5963 13.7641 11.5885C13.7545 11.5807 13.7434 11.5749 13.7315 11.5714C13.7193 11.5678 13.7065 11.5668 13.6939 11.5684C13.6813 11.57 13.6691 11.5743 13.6583 11.5809C13.297 11.7953 12.8536 12.1874 12.8778 12.9408C12.907 13.8998 13.7044 14.6321 14.7409 14.6621H14.7929H14.8638C16.0957 14.6218 16.9852 13.7075 16.9852 12.4675C16.9852 11.3293 16.1557 10.1106 14.621 10.1106Z" fill="white"/>
<path d="M25.4242 10.6958H24.8067C24.7923 10.696 24.7784 10.7018 24.7682 10.7121C24.7579 10.7223 24.752 10.7362 24.752 10.7507V12.0462C24.752 12.0606 24.7579 12.0744 24.7682 12.0845C24.7785 12.0946 24.7923 12.1003 24.8067 12.1003H25.4242C25.8002 12.1003 26.0774 11.804 26.0774 11.3981C26.0774 10.9921 25.8002 10.6958 25.4242 10.6958Z" fill="white"/>
<path d="M27.3203 12.9876C27.3203 13.1756 27.479 13.2802 27.7555 13.2802C28.1315 13.2802 28.3539 13.0768 28.3539 12.7162V12.6123L27.7907 12.6416C27.4936 12.6562 27.3203 12.7798 27.3203 12.9876Z" fill="white"/>
<path d="M31.8917 9.01331H23.5963C23.4603 9.01331 23.3254 9.04013 23.1998 9.09223C23.074 9.14433 22.9598 9.22069 22.8637 9.31696C22.7675 9.41322 22.6912 9.52749 22.6392 9.65325C22.5871 9.77901 22.5604 9.91378 22.5605 10.0499V14.5911C22.5605 14.8659 22.6696 15.1294 22.8639 15.3238C23.0582 15.5182 23.3216 15.6275 23.5963 15.6277H31.8917C32.0279 15.628 32.163 15.6016 32.289 15.5498C32.415 15.4979 32.5295 15.4217 32.6261 15.3256C32.7225 15.2295 32.7993 15.1153 32.8517 14.9895C32.904 14.8637 32.931 14.7288 32.9312 14.5926V10.0513C32.9314 9.91481 32.9048 9.77958 32.8526 9.65342C32.8005 9.52725 32.7239 9.41264 32.6273 9.31618C32.5307 9.21971 32.416 9.14329 32.2898 9.09132C32.1636 9.03934 32.0283 9.01283 31.8917 9.01331ZM25.4543 12.6102H24.8018C24.7873 12.6102 24.7734 12.6159 24.7631 12.6262C24.7528 12.6365 24.747 12.6505 24.747 12.665V13.5941C24.747 13.6086 24.7412 13.6226 24.731 13.6328C24.7206 13.6431 24.7067 13.6489 24.6922 13.6489H24.2327C24.2183 13.6487 24.2044 13.6429 24.1941 13.6326C24.1839 13.6224 24.1782 13.6085 24.1779 13.5941V10.243C24.1779 10.2284 24.1837 10.2145 24.194 10.2042C24.2043 10.1939 24.2182 10.1881 24.2327 10.1881H25.4543C26.1464 10.1881 26.6416 10.6921 26.6416 11.3995C26.6416 12.1069 26.15 12.6116 25.4581 12.6116L25.4543 12.6102ZM28.8925 13.5933C28.8926 13.6006 28.8913 13.6078 28.8885 13.6145C28.8858 13.6213 28.8818 13.6274 28.8767 13.6326C28.8715 13.6378 28.8655 13.6419 28.8588 13.6447C28.8521 13.6475 28.8449 13.6489 28.8376 13.6489H28.4038C28.3966 13.6489 28.3894 13.6475 28.3827 13.6447C28.3759 13.6419 28.3698 13.6378 28.3648 13.6326C28.3597 13.6274 28.3556 13.6213 28.353 13.6145C28.3503 13.6078 28.3489 13.6006 28.349 13.5933V13.4931C28.3497 13.4843 28.3476 13.4755 28.3429 13.468C28.3383 13.4606 28.3313 13.4548 28.323 13.4516C28.3148 13.4484 28.3058 13.4479 28.2973 13.4503C28.2887 13.4526 28.2813 13.4576 28.2759 13.4646C28.1463 13.6058 27.9357 13.7082 27.5999 13.7082C27.1055 13.7082 26.7784 13.4507 26.7784 13.0059C26.7736 12.8975 26.796 12.7896 26.8436 12.6919C26.891 12.5944 26.9623 12.5102 27.0506 12.447C27.229 12.3132 27.5055 12.2437 27.9159 12.2276L28.3511 12.213V12.0857C28.3511 11.8289 28.1785 11.7199 27.9012 11.7199C27.624 11.7199 27.4492 11.8179 27.4083 11.9781C27.405 11.9895 27.3981 11.9994 27.3885 12.0062C27.379 12.0131 27.3674 12.0166 27.3556 12.0162H26.9262C26.9183 12.0164 26.9104 12.0148 26.9032 12.0117C26.896 12.0085 26.8895 12.0038 26.8842 11.9979C26.879 11.9919 26.8752 11.985 26.8729 11.9774C26.8707 11.9698 26.8701 11.9618 26.8713 11.954C26.9357 11.5736 27.2502 11.2847 27.9211 11.2847C28.6336 11.2847 28.8903 11.616 28.8903 12.2488L28.8925 13.5933ZM31.5947 11.4193L30.6292 13.9949C30.4097 14.5933 30.0256 14.7469 29.605 14.7469C29.5258 14.7489 29.4467 14.7392 29.3702 14.7184C29.3582 14.7152 29.3478 14.7082 29.3402 14.6984C29.3327 14.6886 29.3286 14.6766 29.3285 14.6643V14.2729C29.3285 14.2647 29.3302 14.2566 29.3337 14.2492C29.3372 14.2418 29.3422 14.2352 29.3485 14.23C29.3548 14.2247 29.3621 14.2209 29.3701 14.2189C29.378 14.2168 29.3863 14.2165 29.3943 14.218C29.4607 14.2306 29.528 14.237 29.5955 14.2371C29.7118 14.2429 29.8267 14.2095 29.9219 14.1423C30.0169 14.075 30.0867 13.9778 30.12 13.8662L30.1486 13.7762C30.153 13.7642 30.153 13.7509 30.1486 13.7389L29.2458 11.42C29.2431 11.4117 29.2423 11.4029 29.2436 11.3942C29.2449 11.3856 29.2482 11.3774 29.2532 11.3702C29.2583 11.3631 29.265 11.3573 29.2727 11.3532C29.2804 11.3492 29.289 11.347 29.2977 11.3468H29.7367C29.7479 11.347 29.7588 11.3504 29.7681 11.3568C29.7774 11.3632 29.7845 11.3722 29.7886 11.3827L30.4016 13.0184C30.4057 13.029 30.4129 13.0382 30.4223 13.0447C30.4317 13.0512 30.4428 13.0547 30.4543 13.0547C30.4657 13.0547 30.477 13.0512 30.4863 13.0447C30.4957 13.0382 30.503 13.029 30.5069 13.0184L31.0388 11.3871C31.0423 11.376 31.0494 11.3663 31.0589 11.3594C31.0683 11.3526 31.0797 11.3489 31.0914 11.349H31.5414C31.55 11.349 31.5586 11.351 31.5664 11.3549C31.5741 11.3588 31.5809 11.3645 31.5861 11.3714C31.5913 11.3784 31.5947 11.3865 31.5962 11.3951C31.5978 11.4036 31.5973 11.4124 31.5947 11.4207V11.4193Z" fill="white"/>
</g>
</g>
<defs>
<clipPath id="clip0_319_73">
<rect width="28" height="6.72597" fill="white" transform="translate(5 9)"/>
</clipPath>
</defs>
</svg>
