<svg width="197" height="236" viewBox="0 0 197 236" fill="none" xmlns="http://www.w3.org/2000/svg">
<g clip-path="url(#clip0_189_1393)">
<path d="M1.54126 112.797C8.25738 106.273 16.2297 101.183 24.9739 97.8348C33.7182 94.4869 43.0518 92.9513 52.4077 93.3215C56.9241 89.6378 61.8788 86.5268 67.159 84.0594C92.3329 72.361 116.739 79.3852 122.604 81.262C131.331 84.0753 139.505 88.3773 146.765 93.9777C152.515 94.2664 158.222 95.1182 163.805 96.5208C176.026 99.6316 187.461 105.262 197.377 113.051C191.645 116.927 185.541 120.843 179.065 124.75C172.795 128.534 166.691 132.009 160.753 135.176C159.736 139.8 157.549 146.478 152.106 151.961C145.605 158.512 137.446 160.384 100.222 160.099C60.933 159.799 52.5247 157.581 46.3038 150.69C41.2629 145.095 39.4165 138.401 38.6738 133.396C25.2506 128.612 12.7057 121.652 1.54126 112.797Z" fill="#94D591"/>
<path d="M101.533 307.168C91.1632 307.196 80.854 305.587 70.9834 302.401C54.8194 297.046 40.249 287.72 28.5998 275.274C16.0637 261.803 8.44538 245.955 6.57387 229.445C4.03106 207.081 12.463 188.582 16.206 181.668C23.2961 168.601 33.7371 157.67 46.4503 150.003C49.7566 153.563 54.1514 155.917 58.9406 156.693C72.3107 158.07 85.569 158.962 98.3644 159.349C100.943 159.426 102.789 159.462 104.177 159.462C105.734 159.462 106.618 159.416 107.737 159.36C109.558 159.273 111.806 159.161 118.259 159.161C119.444 159.161 120.772 159.161 122.257 159.161H122.994H125.537C130.17 159.161 134.442 159.033 139.777 157.478C143.807 156.292 147.649 154.539 151.189 152.272C160.433 156.949 168.548 163.591 174.969 171.735C191.045 192.238 190.389 215.637 190.17 223.326C189.835 235.191 186.793 257.999 170.143 277.467C154.011 296.353 129.005 307.168 101.533 307.168Z" fill="#94D591"/>
<path d="M71.0589 112.6C69.2898 112.159 67.6929 111.22 66.468 109.899C65.2431 108.578 64.4444 106.934 64.1718 105.173C63.4468 100.051 67.7531 94.6049 72.8713 94.5625C76.8803 94.5625 80.0267 97.8304 81.2083 100.929C81.4983 101.685 83.0932 106.163 80.1209 109.77C79.0361 111.026 77.6104 111.957 76.0074 112.458C74.4044 112.958 72.6892 113.007 71.0589 112.6Z" fill="white"/>
<path d="M119.802 111.598C118.185 111.182 116.725 110.294 115.605 109.047C114.485 107.799 113.755 106.247 113.506 104.583C112.843 99.7465 116.78 94.6026 121.459 94.5625C125.125 94.5625 128.001 97.6488 129.082 100.575C129.347 101.29 130.805 105.518 128.088 108.925C127.096 110.111 125.792 110.991 124.327 111.464C122.861 111.936 121.293 111.983 119.802 111.598Z" fill="white"/>
<path d="M90.812 110.254L96.3922 117.197L102.511 110.254" fill="#33915C"/>
<path d="M96.0259 115.467C96.4619 117.141 96.4178 118.903 95.8987 120.553C94.332 125.309 89.1487 126.657 88.2687 126.911C87.1751 127.201 82.2766 128.493 80.7659 126.021C79.8147 124.459 80.4861 121.85 82.4191 119.663" stroke="#33915C" stroke-width="4" stroke-linecap="round" stroke-linejoin="round"/>
<path d="M96.6261 115.467C96.1901 117.141 96.2341 118.903 96.7532 120.553C98.3199 125.309 103.503 126.657 104.383 126.911C105.477 127.201 110.375 128.493 111.886 126.021C112.837 124.459 112.166 121.85 110.233 119.663" stroke="#33915C" stroke-width="4" stroke-linecap="round" stroke-linejoin="round"/>
<path d="M133.794 116.357L165.331 138.228L133.794 116.357Z" fill="#D9D9D9"/>
<path d="M133.794 116.357L165.331 138.228" stroke="#33915C" stroke-width="4" stroke-miterlimit="10" stroke-linecap="round"/>
<path d="M133.199 124.327L165.331 153.741L133.199 124.327Z" fill="#D9D9D9"/>
<path d="M133.199 124.327L165.331 153.741" stroke="#33915C" stroke-width="4.59" stroke-miterlimit="10" stroke-linecap="round"/>
<path d="M131.795 131.198L150.539 164.686L131.795 131.198Z" fill="#D9D9D9"/>
<path d="M131.795 131.198L150.539 164.686" stroke="#33915C" stroke-width="4" stroke-miterlimit="10" stroke-linecap="round"/>
<path d="M59.2289 118.279L27.6917 140.15L59.2289 118.279Z" fill="#D9D9D9"/>
<path d="M59.2289 118.279L27.6917 140.15" stroke="#33915C" stroke-width="4" stroke-miterlimit="10" stroke-linecap="round"/>
<path d="M59.824 126.25L27.6917 155.664L59.824 126.25Z" fill="#D9D9D9"/>
<path d="M59.824 126.25L27.6917 155.664" stroke="#33915C" stroke-width="4.59" stroke-miterlimit="10" stroke-linecap="round"/>
<path d="M61.2279 133.142C54.9815 144.308 48.7334 155.472 42.4836 166.635L61.2279 133.142Z" fill="#D9D9D9"/>
<path d="M61.2279 133.142C54.9815 144.308 48.7334 155.472 42.4836 166.635" stroke="#33915C" stroke-width="4" stroke-miterlimit="10" stroke-linecap="round"/>
<path d="M192.799 280.485C183.867 280.485 176.522 276.798 173.557 275.043L184.096 256.799C186.514 257.653 189.051 258.118 191.614 258.177C193.813 258.225 195.983 257.679 197.896 256.595C202.291 254.006 203.492 249.22 204.957 243.157C206.427 237.181 208.258 229.74 213.965 221.993C216.742 218.224 218.818 216.546 220.705 216.546H220.954C223.65 216.754 226.387 220.488 228.457 226.785C229.983 231.398 232.496 243.839 223.202 259.779C219.871 265.496 214.296 275.063 202.652 278.909C199.473 279.957 196.147 280.489 192.799 280.485Z" fill="#33915C"/>
<path d="M220.705 217.574H220.873C221.712 217.635 224.662 218.515 227.485 227.116C229.459 233.123 229.459 239.832 227.485 247.059C226.288 251.329 224.557 255.43 222.332 259.266C218.863 265.217 213.624 274.215 202.347 277.938C199.27 278.954 196.05 279.469 192.81 279.464C184.895 279.464 178.267 276.483 174.96 274.662L179.681 266.494L184.579 258.015C186.858 258.749 189.231 259.145 191.624 259.19C194.003 259.239 196.351 258.645 198.42 257.471C203.186 254.663 204.468 249.44 205.953 243.397C207.403 237.507 209.209 230.173 214.794 222.589C217.292 219.202 219.224 217.559 220.715 217.559M220.715 215.524C218.4 215.524 216.081 217.417 213.156 221.384C201.732 236.892 205.602 250.884 197.388 255.716C195.635 256.715 193.641 257.213 191.624 257.156C188.895 257.081 186.197 256.543 183.648 255.564L172.188 275.4C173.77 276.417 182.092 281.503 192.81 281.503C196.266 281.51 199.7 280.962 202.983 279.881C214.992 275.914 220.628 266.25 224.092 260.299C226.315 256.484 234.378 241.51 229.433 226.475C228.838 224.664 225.964 215.916 221.04 215.54C220.934 215.54 220.822 215.54 220.715 215.54V215.524Z" fill="#33915C"/>
<path d="M59.4731 186.547C58.8113 186.554 58.1513 186.476 57.5096 186.313C55.185 185.672 53.7048 184.518 53.1097 182.88C52.4382 181.029 52.8401 178.618 53.9235 178.007C54.0468 177.935 54.1873 177.896 54.3305 177.896C54.876 177.976 55.4039 178.148 55.8921 178.404C57.3311 179.091 58.8816 179.515 60.47 179.655C60.7905 179.681 61.111 179.696 61.4212 179.696C63.0726 179.672 64.7053 179.344 66.2383 178.73C66.6368 178.562 67.0533 178.441 67.4795 178.368C67.6047 178.692 67.6347 179.045 67.566 179.386C67.3418 180.605 66.8723 181.766 66.1859 182.799C65.4996 183.832 64.6106 184.714 63.5729 185.393C62.3446 186.161 60.9219 186.562 59.4731 186.547Z" fill="#33915C"/>
<path d="M54.3865 178.918C54.7655 179.028 55.1347 179.17 55.4903 179.341C57.0309 180.073 58.6897 180.524 60.3887 180.673C60.7295 180.699 61.0754 180.714 61.4061 180.714C63.1492 180.686 64.8728 180.341 66.4927 179.697C65.9678 181.671 64.7419 183.387 63.044 184.523C61.9739 185.18 60.7389 185.519 59.4834 185.5C58.9126 185.505 58.3435 185.439 57.7895 185.302C57.0519 185.098 54.7935 184.478 54.0762 182.499C53.5269 180.973 53.9338 179.234 54.3967 178.893M54.3408 176.858C54.0226 176.858 53.71 176.942 53.4353 177.103C51.7872 178.028 51.4007 181.044 52.1637 183.206C53.242 186.166 56.3805 187.036 57.2503 187.275C59.5838 187.856 62.0525 187.49 64.1173 186.258C67.7898 183.964 69.4684 178.903 68.1866 177.611C68.0966 177.52 67.9886 177.449 67.8695 177.401C67.7504 177.354 67.6229 177.332 67.4948 177.336C66.3758 177.336 64.5293 178.664 61.4264 178.664C61.1467 178.664 60.8567 178.664 60.5566 178.628C57.3063 178.374 55.7447 176.858 54.3408 176.858Z" fill="#33915C"/>
<path d="M57.7234 209.944C57.0978 209.944 56.3246 209.125 55.5718 208.337C54.468 207.167 53.2116 205.839 51.4109 205.839C51.2839 205.832 51.1565 205.832 51.0294 205.839C49.9275 206.015 48.9341 206.604 48.2521 207.487C47.9672 207.788 47.6468 208.133 47.479 208.133C47.0161 208.077 46.5786 206.78 46.2582 205.834C45.6885 204.151 44.9814 202.06 43.1146 201.328C42.6964 201.165 42.2512 201.082 41.8022 201.084C40.0321 201.084 38.328 202.289 36.8224 203.352C35.9628 203.963 34.8895 204.721 34.4113 204.721C33.9891 204.466 33.8619 201.918 35.2099 199.761C36.4816 197.727 38.8367 196.837 42.0871 195.596C42.9988 195.249 43.9275 194.948 44.8695 194.696C46.0799 194.446 47.2175 193.924 48.1961 193.17C49.0515 192.497 49.8069 191.705 50.4394 190.82C50.6734 190.509 50.9989 190.077 51.1108 190.077C51.2227 190.077 51.6704 190.759 51.9806 191.308C52.7129 192.703 53.6413 193.986 54.7376 195.118C55.5516 195.968 56.5046 196.673 57.5556 197.203C58.2216 197.499 58.7961 197.968 59.2189 198.561C61.2536 201.303 60.4906 204.909 60.3228 205.606C59.5852 208.622 58.5627 209.817 57.8506 209.924C57.8091 209.935 57.7665 209.942 57.7234 209.944Z" fill="#33915C"/>
<path d="M51.0395 191.741L51.0903 191.837C51.8678 193.31 52.8509 194.665 54.01 195.861C54.8931 196.783 55.9248 197.549 57.062 198.129C57.5951 198.353 58.0538 198.723 58.3846 199.197C60.1293 201.573 59.468 204.792 59.3154 205.398C58.6948 207.941 57.9166 208.81 57.703 208.958C57.1801 208.595 56.708 208.164 56.299 207.676C55.1088 206.425 53.6336 204.863 51.3955 204.863C51.2327 204.863 51.0649 204.864 50.8868 204.889C49.6034 205.074 48.4333 205.726 47.6009 206.72C47.4534 206.359 47.3058 205.911 47.1888 205.57C46.5886 203.79 45.7595 201.349 43.4603 200.444C42.9204 200.234 42.3458 200.127 41.7664 200.128C39.6758 200.128 37.8294 201.435 36.2017 202.585C35.8812 202.814 35.4743 203.093 35.108 203.343C35.1649 202.288 35.4868 201.265 36.044 200.367C37.1325 198.628 39.2384 197.824 42.4226 196.608C43.3022 196.272 44.1987 195.982 45.1084 195.739C46.4482 195.448 47.7063 194.863 48.7911 194.025C49.6272 193.371 50.3729 192.61 51.0089 191.761M51.0801 189.111C49.9204 189.111 49.7016 190.749 47.5195 192.417C45.7697 193.77 44.9202 193.465 41.6698 194.706C38.2465 196.013 35.749 196.97 34.2942 199.284C32.8394 201.598 32.5851 204.879 33.7855 205.642C33.9556 205.749 34.1539 205.804 34.3552 205.799C36.1356 205.799 39.1113 202.163 41.741 202.163C42.0646 202.16 42.3857 202.218 42.6872 202.336C45.4492 203.424 45.0626 208.948 47.2651 209.202H47.4228C48.7199 209.202 49.2082 207.107 51.0801 206.903C51.1716 206.898 51.2633 206.898 51.3548 206.903C53.9745 206.903 55.4241 211.008 57.6673 211.008C57.7604 211.015 57.854 211.015 57.9471 211.008C60.0988 210.677 61.0601 206.725 61.2534 205.921C61.4009 205.316 62.3267 201.237 59.9818 198.038C58.588 196.141 57.6572 196.761 55.4038 194.477C52.6112 191.649 52.5298 189.167 51.0801 189.137V189.111Z" fill="#33915C"/>
<path d="M25.1941 170.525C25.4666 174.151 26.1492 177.734 27.2288 181.207C28.3021 184.63 29.1872 186.049 28.7548 188.327C28.0783 191.913 24.6041 195.24 22.3965 194.685C19.7158 194.014 20.2703 187.976 18.0728 187.564C15.1124 187.01 10.9515 197.355 10.6972 197.228C10.4429 197.101 12.4216 191.522 17.0555 183.241C19.5121 178.844 22.2298 174.598 25.1941 170.525Z" fill="#33915C" stroke="#33915C" stroke-width="4" stroke-miterlimit="10"/>
<path d="M24.9398 217.828C23.2459 217.797 20.7127 216.378 20.6008 214.217C20.6006 213.715 20.7004 213.218 20.8943 212.755C21.0882 212.292 21.3723 211.873 21.7301 211.521C22.4098 210.749 23.3491 210.253 24.3701 210.127C24.4646 210.125 24.559 210.137 24.6498 210.163C25.1026 210.285 25.4179 210.956 25.7536 211.689C26.2368 212.706 26.8422 213.993 28.2969 214.273C28.4643 214.307 28.6348 214.324 28.8056 214.324C29.1524 214.319 29.4961 214.257 29.8229 214.14C28.7395 215.921 27.0202 217.853 24.9804 217.853L24.9398 217.828Z" fill="#33915C"/>
<path d="M24.3395 211.145C24.5353 211.449 24.7054 211.769 24.8482 212.101C25.3569 213.149 26.0792 214.705 27.829 215.183C27.1322 215.962 26.1199 216.811 25.0161 216.811H24.9754C23.6833 216.811 21.7097 215.667 21.6284 214.161C21.6491 213.427 21.9557 212.73 22.4829 212.218C22.9709 211.671 23.6217 211.295 24.3395 211.145ZM24.3854 209.11C22.4219 209.11 19.4513 211.43 19.5988 214.268C19.7412 216.989 22.6508 218.805 24.9398 218.845H25.0161C29.5941 218.845 32.4375 211.521 32.0611 211.216H32.0305C31.7304 211.216 30.3774 213.291 28.826 213.291C28.7168 213.291 28.6078 213.281 28.5004 213.261C26.6438 212.9 26.7659 209.7 24.9398 209.192C24.7589 209.144 24.5725 209.12 24.3854 209.12V209.11Z" fill="#33915C"/>
<path d="M188.221 214.598C182.89 213.647 178.974 211.613 176.573 208.556C174.798 206.287 174.263 204.014 173.648 201.379C172.951 198.414 172.163 195.057 169.512 190.84C167.793 188.094 163.831 182.901 161.17 182.901C160.88 182.899 160.594 182.961 160.331 183.084C158.678 183.872 159.08 186.293 159.583 189.365C160.133 192.692 160.819 196.837 158.846 198.48C158.018 199.092 157.006 199.404 155.977 199.365C154.732 199.394 153.515 198.995 152.528 198.236C151.363 197.244 151.353 195.932 151.435 193.694C151.516 191.456 151.618 188.826 149.944 186.024C148.418 183.45 146.439 182.519 144.705 181.695C143.097 180.937 141.831 180.332 141.114 178.542C140.366 176.675 140.737 175.159 141.17 173.405C141.602 171.65 142.09 169.666 141.404 167.199C140.61 164.361 138.474 161.884 135.035 159.804C140.877 159.453 146.528 157.592 151.435 154.402C158.951 158.118 165.686 163.241 171.272 169.493C185.393 185.388 188.008 204.115 188.221 214.598Z" fill="#33915C"/>
<path d="M142.045 298.187C140.925 292.889 141.341 288.495 143.273 285.123C144.709 282.626 146.616 281.277 148.828 279.718C151.315 277.959 154.13 275.968 157.044 271.929C158.945 269.304 162.271 263.683 161.272 261.217C161.165 260.948 161 260.705 160.787 260.508C159.436 259.272 157.343 260.553 154.684 262.173C151.807 263.931 148.222 266.123 145.958 264.911C145.08 264.373 144.411 263.553 144.061 262.584C143.567 261.441 143.48 260.164 143.813 258.964C144.295 257.512 145.508 257.01 147.613 256.245C149.718 255.481 152.194 254.588 154.163 251.985C155.976 249.604 156.096 247.421 156.209 245.504C156.308 243.73 156.393 242.329 157.784 240.992C159.233 239.599 160.778 239.374 162.566 239.116C164.355 238.858 166.377 238.566 168.406 237.003C170.739 235.202 176.378 247.813 177.015 243.845C179.05 237.996 182.136 240.495 186.934 243.845C186.312 252.206 182.748 257.386 179.05 264.911C169.617 283.964 151.682 294.053 142.045 298.187Z" fill="#33915C"/>
<path d="M151.511 154.906C158.707 158.539 165.157 163.49 170.525 169.504C183.903 184.533 186.802 202.157 187.189 212.686C182.743 211.704 179.452 209.883 177.397 207.259C175.759 205.168 175.271 203.098 174.655 200.479C173.979 197.59 173.129 193.994 170.398 189.63C169.859 188.77 165.006 181.217 161.191 181.217C160.749 181.215 160.313 181.313 159.914 181.502C157.574 182.611 158.047 185.51 158.602 188.862C159.11 191.776 159.741 195.759 158.215 197.035C157.569 197.493 156.788 197.721 155.997 197.681C154.993 197.705 154.01 197.392 153.205 196.791C152.437 196.135 152.391 195.266 152.472 193.063C152.559 190.764 152.666 187.895 150.834 184.839C149.141 182 146.933 180.953 145.158 180.108C143.464 179.305 142.614 178.857 142.075 177.494C141.45 175.933 141.755 174.691 142.177 172.982C142.599 171.274 143.159 168.985 142.401 166.264C141.739 163.878 140.229 161.742 137.894 159.87C139.181 159.692 140.456 159.439 141.714 159.112C145.177 158.224 148.482 156.805 151.511 154.906ZM151.379 152.566C145.955 156.217 139.3 158.653 132.762 158.649C131.912 158.649 130.9 159.158 130.218 159.112C136.999 161.956 139.725 164.214 140.442 166.787C141.714 171.365 138.504 174.025 140.188 178.232C141.907 182.519 146.292 181.197 149.09 185.861C152.142 190.947 148.708 195.616 151.887 198.322C153.059 199.239 154.51 199.724 155.997 199.696C157.264 199.738 158.508 199.343 159.517 198.577C163.683 195.098 158.5 184.406 160.789 183.318C160.915 183.26 161.052 183.23 161.191 183.231C162.91 183.231 166.323 186.949 168.673 190.693C173.643 198.612 171.847 203.459 175.795 208.495C177.778 211.038 181.522 213.993 189.274 215.107C189.274 208.266 188.313 186.41 172.046 168.13C166.237 161.64 159.216 156.346 151.379 152.546V152.566Z" fill="#33915C"/>
<path d="M73.0085 53.5418L80.6385 78.2102C92.046 75.8361 103.82 75.8361 115.228 78.2102L120.569 53.2874C105.24 47.4271 88.2733 47.5178 73.0085 53.5418Z" fill="#E1844F" stroke="#E1844F" stroke-width="4" stroke-miterlimit="10"/>
<path d="M70.7196 53.2873C69.8905 53.8265 67.8456 55.2608 66.1416 54.5589C63.8068 53.5976 62.9625 48.964 63.5983 46.6752C66.9148 34.7173 124.953 33.7866 128.707 46.6752C129.262 48.5876 128.809 52.7177 126.418 54.0503C124.76 54.9709 122.726 54.091 120.569 53.2873C116.179 51.6546 111.474 51.0239 106.977 49.7269C95.9901 46.4768 78.8582 47.9823 70.7196 53.2873Z" fill="#FF9356" stroke="#FF9356" stroke-width="4" stroke-miterlimit="10"/>
<path d="M98.1878 36.6296C98.9465 31.748 98.6429 26.7601 97.2976 22.0065C96.0514 17.6578 94.5254 12.3172 89.5405 9.16371C85.8069 6.7986 79.1535 5.04892 75.2979 8.52793C73.9295 9.75881 72.3374 12.1748 72.8817 14.5043C73.9295 18.9751 82.587 21.9608 89.5405 20.3535C96.7788 18.6852 97.0687 13.2327 105.945 10.0538C110.915 8.28379 118.372 7.30214 119.933 10.0538C121.378 12.5969 117.751 18.2885 113.066 20.6078C108.02 23.1052 101.367 21.8845 95.8479 17.4645" fill="#93D490"/>
<path d="M98.1878 36.6296C98.9465 31.748 98.6429 26.7601 97.2976 22.0065C96.0514 17.6578 94.5254 12.3172 89.5405 9.16372C85.8069 6.7986 79.1535 5.04892 75.2979 8.52793C73.9295 9.75881 72.3374 12.1748 72.8817 14.5043C73.9295 18.9751 82.587 21.9608 89.5405 20.3535C96.7788 18.6852 97.0687 13.2327 105.945 10.0538C110.915 8.28379 118.372 7.30214 119.933 10.0538C121.378 12.5969 117.751 18.2885 113.066 20.6078C108.02 23.1052 101.367 21.8845 95.8479 17.4645" stroke="#33915C" stroke-width="4" stroke-miterlimit="10"/>
<path d="M7.88428 111.855C14.8021 103.717 41.2866 98.0375 52.3925 97.3594C53.3237 100.006 45.2711 107.108 41.9648 112.618C39.6758 116.433 40.1845 125.842 39.4215 125.842C30.0687 125.842 18.0576 117.959 7.88428 111.855Z" fill="#33915C"/>
<path d="M190.241 112.6C183.926 105.043 159.752 99.7694 149.615 99.1396C148.765 101.597 154.649 107.484 157.667 112.6C159.756 116.142 160.758 125.588 161.455 125.588C169.992 125.588 180.955 118.268 190.241 112.6Z" fill="#33915C"/>
<ellipse cx="73.2477" cy="105.497" rx="6.61264" ry="6.35784" fill="#33915C"/>
<path d="M74.3315 109.752C73.9271 109.642 73.5621 109.407 73.2821 109.077C73.0022 108.747 72.8196 108.336 72.7573 107.896C72.5916 106.615 73.5759 105.254 74.7458 105.243C75.6621 105.243 76.3813 106.06 76.6514 106.835C76.7176 107.024 77.0822 108.143 76.4028 109.045C76.1549 109.359 75.829 109.592 75.4626 109.717C75.0962 109.842 74.7041 109.854 74.3315 109.752Z" fill="white"/>
<ellipse cx="121.571" cy="104.734" rx="6.10398" ry="6.10352" fill="#33915C"/>
<path d="M119.603 108.743C119.198 108.645 118.833 108.436 118.553 108.142C118.273 107.849 118.091 107.484 118.029 107.092C117.863 105.954 118.847 104.744 120.017 104.734C120.933 104.734 121.653 105.461 121.923 106.149C121.989 106.317 122.353 107.312 121.674 108.114C121.426 108.393 121.1 108.6 120.734 108.711C120.367 108.822 119.975 108.833 119.603 108.743Z" fill="white"/>
<path d="M116.71 212.428C112.058 214.564 110.26 219.218 111.662 222.168C112.811 224.601 116.274 226.189 118.502 225.295C120.73 224.402 121.468 221.126 121.922 221.288C122.375 221.451 120.849 224.574 122.117 226.175C123.462 227.87 127.742 227.592 128.958 225.686C129.987 224.068 128.633 221.554 129.055 221.386C129.548 221.191 130.527 224.953 132.769 225.491C135.01 226.028 138.641 223.208 139.12 219.627C139.523 216.603 137.643 213.458 134.43 212.037" stroke="#33915C" stroke-width="4" stroke-miterlimit="10" stroke-linecap="round"/>
<path d="M68.3864 212.428C63.735 214.564 61.937 219.218 63.3383 222.168C64.4874 224.601 67.9505 226.189 70.1785 225.295C72.4065 224.402 73.1452 221.126 73.5986 221.288C74.052 221.451 72.5257 224.574 73.7941 226.175C75.1387 227.87 79.4187 227.592 80.6343 225.686C81.6642 224.068 80.3099 221.554 80.732 221.386C81.2245 221.191 82.2036 224.953 84.4453 225.491C86.6869 226.028 90.3181 223.208 90.7969 219.627C91.1995 216.603 89.3194 213.458 86.1065 212.037" stroke="#33915C" stroke-width="4" stroke-miterlimit="10" stroke-linecap="round"/>
</g>
<defs>
<clipPath id="clip0_189_1393">
<rect width="197" height="236" fill="white"/>
</clipPath>
</defs>
</svg>
