<svg width="523" height="534" viewBox="0 0 523 534" fill="none" xmlns="http://www.w3.org/2000/svg">
<g clip-path="url(#clip0_323_5)">
<path d="M3.4895 255.698C18.6953 240.962 36.7452 229.464 56.5427 221.901C76.3402 214.338 97.4721 210.87 118.655 211.706C128.88 203.385 140.098 196.357 152.053 190.784C209.048 164.359 264.304 180.225 277.583 184.465C297.342 190.82 315.849 200.538 332.286 213.188C345.304 213.84 358.226 215.764 370.867 218.933C398.534 225.96 424.424 238.678 446.876 256.273C433.897 265.028 420.077 273.874 405.416 282.698C391.22 291.246 377.4 299.097 363.957 306.251C361.653 316.695 356.701 331.78 344.379 344.166C329.661 358.964 311.188 363.192 226.91 362.549C137.956 361.871 118.92 356.861 104.835 341.294C93.4221 328.655 89.2416 313.535 87.5601 302.23C57.1691 291.422 28.7665 275.702 3.4895 255.698Z" fill="#94D591"/>
<path d="M229.877 694.76C206.4 694.823 183.059 691.188 160.711 683.991C124.115 671.894 91.1265 650.83 64.7518 622.715C36.3692 592.285 19.1209 556.487 14.8836 519.192C9.12653 468.674 28.217 426.887 36.6915 411.269C52.7438 381.754 76.383 357.061 105.167 339.742C112.652 347.783 122.602 353.101 133.446 354.854C163.716 357.964 193.734 359.979 222.704 360.855C228.542 361.028 232.721 361.108 235.865 361.108C239.388 361.108 241.391 361.005 243.925 360.878C248.047 360.682 253.136 360.429 267.747 360.429C270.43 360.429 273.435 360.429 276.798 360.429H278.467H284.224C294.714 360.429 304.386 360.141 316.464 356.628C325.589 353.949 334.288 349.99 342.302 344.868C363.231 355.432 381.605 370.435 396.143 388.832C432.539 435.146 431.054 488.001 430.559 505.37C429.799 532.173 422.913 583.693 385.216 627.668C348.692 670.331 292.077 694.76 229.877 694.76Z" fill="#94D591"/>
<path d="M160.882 255.253C156.877 254.258 153.261 252.136 150.488 249.152C147.715 246.168 145.906 242.455 145.289 238.476C143.648 226.908 153.398 214.605 164.986 214.509C174.062 214.509 181.186 221.891 183.861 228.889C184.518 230.599 188.129 240.713 181.399 248.862C178.943 251.698 175.715 253.802 172.086 254.933C168.457 256.063 164.573 256.174 160.882 255.253Z" fill="white"/>
<path d="M271.241 252.989C267.578 252.05 264.273 250.046 261.737 247.228C259.202 244.41 257.548 240.902 256.984 237.145C255.484 226.219 264.398 214.6 274.992 214.509C283.291 214.509 289.804 221.481 292.25 228.091C292.85 229.705 296.152 239.257 289.999 246.953C287.753 249.632 284.802 251.619 281.484 252.687C278.166 253.755 274.615 253.86 271.241 252.989Z" fill="white"/>
<path d="M205.604 249.954L218.238 265.637L232.093 249.954" fill="#33915C"/>
<path d="M217.409 261.73C218.396 265.511 218.296 269.493 217.121 273.219C213.574 283.962 201.839 287.007 199.846 287.581C197.37 288.236 186.28 291.154 182.859 285.57C180.706 282.043 182.226 276.149 186.602 271.209" stroke="#33915C" stroke-width="4" stroke-linecap="round" stroke-linejoin="round"/>
<path d="M218.768 261.73C217.781 265.511 217.881 269.493 219.056 273.219C222.603 283.962 234.338 287.007 236.331 287.581C238.807 288.236 249.897 291.154 253.318 285.57C255.471 282.043 253.951 276.149 249.575 271.209" stroke="#33915C" stroke-width="4" stroke-linecap="round" stroke-linejoin="round"/>
<path d="M302.919 263.741L374.322 313.145L302.919 263.741Z" fill="#D9D9D9"/>
<path d="M302.919 263.741L374.322 313.145" stroke="#33915C" stroke-width="4" stroke-miterlimit="10" stroke-linecap="round"/>
<path d="M301.572 281.744L374.322 348.187L301.572 281.744Z" fill="#D9D9D9"/>
<path d="M301.572 281.744L374.322 348.187" stroke="#33915C" stroke-width="4.59" stroke-miterlimit="10" stroke-linecap="round"/>
<path d="M298.393 297.267L340.832 372.912L298.393 297.267Z" fill="#D9D9D9"/>
<path d="M298.393 297.267L340.832 372.912" stroke="#33915C" stroke-width="4" stroke-miterlimit="10" stroke-linecap="round"/>
<path d="M134.099 268.084L62.696 317.488L134.099 268.084Z" fill="#D9D9D9"/>
<path d="M134.099 268.084L62.696 317.488" stroke="#33915C" stroke-width="4" stroke-miterlimit="10" stroke-linecap="round"/>
<path d="M135.446 286.087L62.696 352.53L135.446 286.087Z" fill="#D9D9D9"/>
<path d="M135.446 286.087L62.696 352.53" stroke="#33915C" stroke-width="4.59" stroke-miterlimit="10" stroke-linecap="round"/>
<path d="M138.624 301.655C124.482 326.878 110.336 352.097 96.186 377.312L138.624 301.655Z" fill="#D9D9D9"/>
<path d="M138.624 301.655C124.482 326.878 110.336 352.097 96.186 377.312" stroke="#33915C" stroke-width="4" stroke-miterlimit="10" stroke-linecap="round"/>
<path d="M436.511 634.488C416.288 634.488 399.658 626.159 392.944 622.195L416.806 580.983C422.279 582.912 428.025 583.963 433.828 584.096C438.805 584.205 443.719 582.97 448.051 580.523C458.001 574.675 460.719 563.864 464.035 550.169C467.364 536.669 471.51 519.86 484.431 502.362C490.719 493.848 495.418 490.057 499.691 490.057H500.255C506.359 490.528 512.555 498.961 517.242 513.185C520.697 523.605 526.386 551.708 505.345 587.715C497.802 600.629 485.18 622.241 458.818 630.927C451.621 633.294 444.09 634.496 436.511 634.488Z" fill="#33915C"/>
<path d="M499.691 492.377H500.071C501.971 492.515 508.65 494.503 515.042 513.931C519.51 527.5 519.51 542.655 515.042 558.981C512.331 568.625 508.412 577.89 503.376 586.555C495.522 599.997 483.66 620.322 458.127 628.732C451.161 631.026 443.87 632.19 436.534 632.179C418.614 632.179 403.608 625.446 396.123 621.333L406.81 602.881L417.9 583.729C423.058 585.386 428.432 586.281 433.851 586.383C439.236 586.493 444.552 585.151 449.237 582.499C460.028 576.157 462.93 564.358 466.293 550.709C469.575 537.404 473.663 520.837 486.308 503.706C491.963 496.054 496.339 492.343 499.714 492.343M499.714 487.747C494.474 487.747 489.222 492.021 482.6 500.983C456.734 536.014 465.498 567.621 446.899 578.536C442.93 580.792 438.416 581.917 433.851 581.787C427.67 581.619 421.564 580.403 415.793 578.191L389.846 622.999C393.428 625.297 412.269 636.786 436.534 636.786C444.359 636.801 452.135 635.564 459.567 633.121C486.758 624.159 499.518 602.33 507.361 588.887C512.393 580.27 530.647 546.446 519.453 512.484C518.106 508.394 511.599 488.632 500.451 487.782C500.209 487.782 499.955 487.782 499.714 487.782V487.747Z" fill="#33915C"/>
<path d="M134.651 422.293C133.153 422.309 131.659 422.131 130.206 421.765C124.943 420.317 121.592 417.709 120.244 414.009C118.724 409.827 119.634 404.381 122.087 403.002C122.366 402.838 122.684 402.751 123.008 402.75C124.243 402.931 125.439 403.319 126.544 403.899C129.802 405.45 133.312 406.408 136.909 406.725C137.634 406.782 138.36 406.817 139.062 406.817C142.801 406.762 146.497 406.022 149.968 404.634C150.871 404.256 151.813 403.982 152.778 403.818C153.062 404.55 153.13 405.347 152.974 406.116C152.467 408.871 151.404 411.494 149.85 413.826C148.296 416.159 146.283 418.152 143.934 419.685C141.153 421.421 137.932 422.326 134.651 422.293Z" fill="#33915C"/>
<path d="M123.135 405.059C123.993 405.307 124.829 405.627 125.634 406.013C129.122 407.666 132.877 408.685 136.724 409.023C137.496 409.08 138.279 409.115 139.028 409.115C142.974 409.051 146.877 408.273 150.544 406.817C149.356 411.277 146.58 415.153 142.736 417.72C140.313 419.204 137.517 419.969 134.674 419.926C133.382 419.938 132.094 419.788 130.839 419.478C129.169 419.018 124.056 417.617 122.432 413.147C121.189 409.701 122.11 405.771 123.158 405.001M123.031 400.406C122.311 400.404 121.603 400.594 120.981 400.957C117.25 403.048 116.375 409.861 118.102 414.744C120.544 421.431 127.649 423.396 129.619 423.936C134.902 425.248 140.491 424.422 145.166 421.638C153.481 416.456 157.281 405.024 154.379 402.106C154.175 401.9 153.931 401.739 153.661 401.632C153.392 401.525 153.103 401.475 152.813 401.486C150.279 401.486 146.099 404.484 139.074 404.484C138.44 404.484 137.784 404.484 137.104 404.404C129.745 403.829 126.21 400.406 123.031 400.406Z" fill="#33915C"/>
<path d="M130.69 475.144C129.273 475.144 127.523 473.294 125.818 471.513C123.319 468.871 120.475 465.872 116.398 465.872C116.11 465.855 115.822 465.855 115.534 465.872C113.039 466.268 110.79 467.6 109.246 469.594C108.601 470.272 107.875 471.053 107.495 471.053C106.447 470.927 105.457 467.997 104.731 465.86C103.442 462.057 101.841 457.335 97.6141 455.681C96.6674 455.312 95.6593 455.125 94.6429 455.129C90.6352 455.129 86.7771 457.852 83.3682 460.254C81.4219 461.632 78.9919 463.344 77.9094 463.344C76.9535 462.77 76.6655 457.014 79.7174 452.142C82.5965 447.546 87.9287 445.536 95.2878 442.732C97.3519 441.949 99.4545 441.27 101.587 440.699C104.328 440.135 106.903 438.956 109.119 437.252C111.056 435.732 112.766 433.944 114.198 431.944C114.728 431.243 115.465 430.266 115.718 430.266C115.971 430.266 116.985 431.806 117.687 433.047C119.345 436.198 121.447 439.096 123.929 441.652C125.772 443.573 127.93 445.166 130.31 446.363C131.818 447.031 133.118 448.09 134.075 449.431C138.682 455.623 136.955 463.769 136.575 465.343C134.905 472.156 132.59 474.856 130.977 475.098C130.884 475.124 130.787 475.139 130.69 475.144Z" fill="#33915C"/>
<path d="M115.557 434.023L115.672 434.242C117.432 437.568 119.658 440.629 122.283 443.33C124.282 445.412 126.618 447.144 129.192 448.454C130.399 448.959 131.438 449.796 132.187 450.867C136.137 456.232 134.64 463.505 134.294 464.872C132.889 470.617 131.127 472.582 130.644 472.915C129.46 472.095 128.391 471.121 127.465 470.019C124.77 467.193 121.43 463.666 116.363 463.666C115.994 463.666 115.614 463.666 115.211 463.723C112.306 464.141 109.656 465.614 107.772 467.859C107.438 467.044 107.104 466.032 106.839 465.263C105.48 461.241 103.603 455.727 98.3973 453.682C97.1747 453.207 95.8739 452.966 94.5622 452.969C89.8289 452.969 85.6484 455.922 81.9632 458.519C81.2376 459.036 80.3163 459.668 79.4871 460.231C79.6157 457.848 80.3445 455.536 81.6061 453.509C84.0706 449.58 88.8385 447.765 96.0478 445.019C98.0393 444.259 100.069 443.604 102.129 443.054C105.162 442.398 108.01 441.075 110.467 439.182C112.359 437.707 114.048 435.988 115.488 434.069M115.649 428.084C113.023 428.084 112.528 431.783 107.587 435.552C103.626 438.608 101.702 437.918 94.3434 440.722C86.5928 443.675 80.9382 445.834 77.6445 451.062C74.3507 456.29 73.7749 463.7 76.4928 465.424C76.8779 465.667 77.3268 465.791 77.7826 465.78C81.8134 465.78 88.5506 457.565 94.5047 457.565C95.2371 457.558 95.9641 457.691 96.6467 457.956C102.9 460.414 102.025 472.892 107.012 473.466H107.369C110.305 473.466 111.411 468.733 115.649 468.273C115.856 468.262 116.064 468.262 116.271 468.273C122.202 468.273 125.484 477.545 130.563 477.545C130.774 477.562 130.986 477.562 131.196 477.545C136.068 476.798 138.244 467.871 138.682 466.056C139.016 464.688 141.112 455.474 135.803 448.247C132.647 443.962 130.54 445.363 125.438 440.205C119.115 433.817 118.931 428.21 115.649 428.141V428.084Z" fill="#33915C"/>
<path d="M57.0413 386.102C57.6582 394.292 59.2036 402.386 61.6479 410.229C64.0779 417.961 66.0818 421.167 65.1028 426.314C63.5711 434.414 55.7054 441.928 50.7072 440.676C44.638 439.159 45.8933 425.521 40.9181 424.591C34.2155 423.338 24.795 446.708 24.2192 446.42C23.6434 446.133 28.1233 433.529 38.6148 414.825C44.1767 404.892 50.3298 395.3 57.0413 386.102Z" fill="#33915C" stroke="#33915C" stroke-width="4" stroke-miterlimit="10"/>
<path d="M56.4655 492.952C52.6305 492.883 46.8952 489.677 46.6418 484.794C46.6414 483.661 46.8673 482.539 47.3062 481.493C47.7452 480.448 48.3884 479.5 49.1985 478.705C50.7374 476.961 52.8642 475.841 55.1756 475.557C55.3897 475.551 55.6034 475.578 55.8091 475.638C56.8341 475.913 57.548 477.43 58.3081 479.084C59.4022 481.382 60.7726 484.289 64.0664 484.921C64.4454 484.998 64.8312 485.036 65.218 485.036C66.0033 485.025 66.7814 484.885 67.5213 484.622C65.0683 488.643 61.1757 493.009 56.5576 493.009L56.4655 492.952Z" fill="#33915C"/>
<path d="M55.1065 477.855C55.5498 478.542 55.935 479.264 56.2582 480.015C57.4098 482.382 59.0453 485.898 63.007 486.978C61.4292 488.735 59.1374 490.654 56.6383 490.654H56.5461C53.6209 490.654 49.1525 488.069 48.9683 484.668C49.0151 483.01 49.7094 481.435 50.9031 480.279C52.0079 479.043 53.4813 478.193 55.1065 477.855ZM55.2103 473.259C50.7649 473.259 44.0392 478.498 44.3732 484.909C44.6956 491.056 51.2831 495.158 56.4655 495.25H56.6383C67.0032 495.25 73.4409 478.705 72.5887 478.016H72.5195C71.84 478.016 68.7767 482.704 65.2642 482.704C65.0169 482.703 64.7701 482.68 64.5271 482.635C60.3236 481.819 60.6 474.592 56.4655 473.443C56.0559 473.335 55.6339 473.281 55.2103 473.282V473.259Z" fill="#33915C"/>
<path d="M426.146 485.656C414.076 483.508 405.209 478.912 399.773 472.007C395.754 466.883 394.544 461.747 393.151 455.796C391.573 449.097 389.788 441.514 383.788 431.99C379.895 425.786 370.924 414.055 364.901 414.055C364.244 414.05 363.595 414.191 363.001 414.469C359.258 416.249 360.168 421.718 361.308 428.658C362.551 436.172 364.106 445.536 359.638 449.247C357.763 450.63 355.472 451.335 353.142 451.246C350.324 451.311 347.568 450.411 345.334 448.695C342.697 446.455 342.674 443.491 342.858 438.435C343.043 433.38 343.273 427.44 339.484 421.109C336.029 415.296 331.549 413.193 327.622 411.332C323.983 409.62 321.115 408.253 319.491 404.209C317.798 399.992 318.639 396.568 319.618 392.605C320.597 388.641 321.702 384.16 320.148 378.588C318.351 372.177 313.514 366.581 305.729 361.882C318.955 361.09 331.749 356.886 342.858 349.681C359.877 358.074 375.124 369.646 387.773 383.769C419.743 419.673 425.662 461.977 426.146 485.656Z" fill="#33915C"/>
<path d="M321.599 674.471C319.065 662.504 320.005 652.58 324.38 644.961C327.632 639.321 331.95 636.275 336.956 632.752C342.587 628.779 348.962 624.282 355.558 615.158C359.861 609.23 367.392 596.531 365.131 590.962C364.889 590.353 364.514 589.806 364.034 589.36C360.974 586.567 356.234 589.461 350.215 593.121C343.701 597.091 335.585 602.044 330.46 599.305C328.471 598.091 326.956 596.238 326.164 594.05C325.046 591.468 324.848 588.582 325.603 585.872C326.694 582.592 329.44 581.459 334.206 579.731C338.972 578.004 344.577 575.987 349.036 570.107C353.14 564.73 353.412 559.798 353.667 555.468C353.891 551.461 354.085 548.296 357.233 545.276C360.515 542.128 364.011 541.62 368.062 541.037C372.112 540.455 376.69 539.795 381.283 536.265C386.565 532.198 399.332 560.682 400.775 551.72C405.382 538.507 412.368 544.152 423.232 551.72C421.823 570.607 413.755 582.307 405.382 599.305C384.026 642.345 343.417 665.135 321.599 674.471Z" fill="#33915C"/>
<path d="M343.031 350.818C359.324 359.024 373.926 370.209 386.08 383.792C416.369 417.743 422.933 457.553 423.808 481.336C413.743 479.119 406.292 475.006 401.639 469.077C397.931 464.355 396.825 459.679 395.431 453.762C393.9 447.236 391.977 439.113 385.792 429.255C384.571 427.314 373.585 410.252 364.947 410.252C363.948 410.248 362.96 410.468 362.057 410.895C356.759 413.4 357.83 419.949 359.085 427.521C360.237 434.104 361.665 443.1 358.21 445.984C356.748 447.018 354.979 447.532 353.189 447.443C350.915 447.497 348.689 446.789 346.866 445.432C345.127 443.95 345.024 441.986 345.208 437.011C345.404 431.818 345.646 425.337 341.5 418.432C337.665 412.021 332.666 409.655 328.647 407.747C324.812 405.932 322.889 404.921 321.668 401.842C320.252 398.315 320.943 395.511 321.898 391.651C322.854 387.79 324.121 382.62 322.405 376.474C320.908 371.085 317.488 366.26 312.202 362.032C315.115 361.629 318.003 361.057 320.85 360.32C328.691 358.314 336.174 355.109 343.031 350.818ZM342.732 345.533C330.452 353.78 315.384 359.283 300.581 359.274C298.658 359.274 296.366 360.423 294.823 360.32C310.175 366.742 316.347 371.843 317.971 377.657C320.85 387.997 313.584 394.006 317.395 403.508C321.288 413.193 331.215 410.206 337.549 420.742C344.459 432.231 336.686 442.778 343.883 448.89C346.536 450.961 349.822 452.056 353.189 451.993C356.058 452.089 358.872 451.196 361.158 449.465C370.59 441.606 358.855 417.456 364.037 414.997C364.323 414.866 364.633 414.8 364.947 414.802C368.84 414.802 376.567 423.2 381.888 431.657C393.14 449.545 389.074 460.495 398.011 471.869C402.503 477.614 410.979 484.289 428.53 486.805C428.53 471.352 426.353 421.983 389.523 380.69C376.371 366.03 360.477 354.072 342.732 345.487V345.533Z" fill="#33915C"/>
<path d="M165.297 121.848L182.571 177.571C208.399 172.208 235.056 172.208 260.884 177.571L272.976 121.274C238.272 108.036 199.857 108.241 165.297 121.848Z" fill="#E1844F" stroke="#E1844F" stroke-width="4" stroke-miterlimit="10"/>
<path d="M160.114 121.274C158.237 122.492 153.607 125.732 149.749 124.146C144.463 121.975 142.552 111.508 143.991 106.338C151.5 79.3264 282.903 77.2239 291.403 106.338C292.658 110.658 291.633 119.987 286.22 122.997C282.466 125.077 277.859 123.089 272.976 121.274C263.037 117.586 252.385 116.161 242.204 113.231C217.328 105.89 178.541 109.29 160.114 121.274Z" fill="#FF9356" stroke="#FF9356" stroke-width="4" stroke-miterlimit="10"/>
<path d="M222.304 83.6466C224.022 72.6196 223.334 61.3526 220.288 50.6149C217.467 40.7916 214.012 28.7278 202.726 21.6045C194.272 16.262 179.209 12.3097 170.479 20.1683C167.381 22.9487 163.777 28.4061 165.009 33.6682C167.381 43.7673 186.983 50.5115 202.726 46.8809C219.114 43.1124 219.77 30.7959 239.866 23.6151C251.118 19.6168 268.001 17.3994 271.537 23.6151C274.808 29.3598 266.596 42.2163 255.99 47.4554C244.565 53.0966 229.502 50.3393 217.006 40.3551" fill="#93D490"/>
<path d="M222.304 83.6466C224.022 72.6196 223.334 61.3526 220.288 50.6149C217.467 40.7916 214.012 28.7278 202.726 21.6045C194.272 16.262 179.209 12.3097 170.479 20.1683C167.381 22.9487 163.777 28.4061 165.009 33.6682C167.381 43.7673 186.983 50.5115 202.726 46.8809C219.114 43.1124 219.77 30.7959 239.866 23.6151C251.118 19.6168 268.001 17.3994 271.537 23.6151C274.808 29.3598 266.596 42.2163 255.99 47.4554C244.565 53.0966 229.502 50.3393 217.006 40.3551" stroke="#33915C" stroke-width="4" stroke-miterlimit="10"/>
<path d="M17.8506 253.573C33.5131 235.19 93.4758 222.36 118.62 220.828C120.729 226.806 102.497 242.85 95.0113 255.296C89.8289 263.913 90.9805 285.168 89.253 285.168C68.0777 285.168 40.8836 267.36 17.8506 253.573Z" fill="#33915C"/>
<path d="M430.718 255.255C416.422 238.185 361.69 226.272 338.74 224.85C336.815 230.401 350.136 243.698 356.968 255.255C361.699 263.257 363.968 284.594 365.545 284.594C384.873 284.594 409.694 268.058 430.718 255.255Z" fill="#33915C"/>
<ellipse cx="165.838" cy="239.211" rx="14.9715" ry="14.3616" fill="#33915C"/>
<path d="M168.292 248.823C167.376 248.574 166.55 248.044 165.916 247.298C165.282 246.552 164.869 245.623 164.728 244.628C164.353 241.736 166.581 238.661 169.23 238.637C171.304 238.637 172.933 240.482 173.544 242.232C173.694 242.659 174.52 245.188 172.981 247.225C172.42 247.934 171.682 248.46 170.853 248.743C170.023 249.025 169.135 249.053 168.292 248.823Z" fill="white"/>
<ellipse cx="275.245" cy="237.488" rx="13.8198" ry="13.7871" fill="#33915C"/>
<path d="M270.789 246.542C269.873 246.321 269.047 245.849 268.413 245.186C267.779 244.523 267.366 243.698 267.225 242.814C266.85 240.243 269.078 237.509 271.727 237.488C273.801 237.488 275.43 239.128 276.041 240.683C276.191 241.063 277.017 243.311 275.478 245.122C274.917 245.752 274.179 246.22 273.35 246.471C272.52 246.722 271.633 246.747 270.789 246.542Z" fill="white"/>
<path d="M264.239 480.753C253.708 485.579 249.637 496.091 252.809 502.754C255.411 508.251 263.252 511.836 268.296 509.818C273.34 507.801 275.013 500.401 276.039 500.767C277.066 501.134 273.61 508.189 276.482 511.805C279.526 515.633 289.216 515.006 291.969 510.701C294.301 507.046 291.234 501.368 292.19 500.988C293.305 500.546 295.522 509.046 300.597 510.26C305.672 511.474 313.894 505.103 314.978 497.014C315.889 490.184 311.632 483.08 304.358 479.87" stroke="#33915C" stroke-width="4" stroke-miterlimit="10" stroke-linecap="round"/>
<path d="M154.832 480.753C144.301 485.579 140.23 496.091 143.402 502.754C146.004 508.251 153.845 511.836 158.889 509.818C163.933 507.801 165.606 500.401 166.632 500.767C167.659 501.134 164.203 508.189 167.075 511.805C170.119 515.633 179.81 515.006 182.562 510.701C184.894 507.046 181.827 501.368 182.783 500.988C183.898 500.546 186.115 509.046 191.19 510.26C196.265 511.474 204.487 505.103 205.571 497.014C206.482 490.184 202.225 483.08 194.951 479.87" stroke="#33915C" stroke-width="4" stroke-miterlimit="10" stroke-linecap="round"/>
</g>
<defs>
<clipPath id="clip0_323_5">
<rect width="523" height="533.096" fill="white" transform="translate(0 0.904297)"/>
</clipPath>
</defs>
</svg>
