<svg width="78" height="13" viewBox="0 0 78 13" fill="none" xmlns="http://www.w3.org/2000/svg">
<g id="five_stars" clip-path="url(#clip0_189_1021)">
<path id="Vector" d="M6.83948 11.0351L3.33017 12.8731C2.7282 13.1881 2.33426 12.8981 2.45284 12.2091L3.11913 8.34306L0.290173 5.59604C-0.202256 5.11704 -0.0515122 4.65004 0.617789 4.55404L4.54014 3.98503L6.28373 0.468008C6.59226 -0.151996 7.0877 -0.159996 7.39723 0.468008L9.14083 3.98503L13.0632 4.55404C13.7365 4.65104 13.8842 5.11604 13.3918 5.59604L10.5608 8.34206L11.2261 12.2081C11.3437 12.8901 10.9467 13.1851 10.3488 12.8721L6.83948 11.0351ZM22.9188 11.0351L19.4095 12.8731C18.8065 13.1881 18.4126 12.8981 18.5321 12.2091L19.1974 8.34306L16.3685 5.59604C15.876 5.11704 16.0278 4.65004 16.6961 4.55404L20.6184 3.98503L22.363 0.468008C22.6706 -0.151996 23.166 -0.159996 23.4755 0.468008L25.2191 3.98503L29.1415 4.55404C29.8148 4.65104 29.9635 5.11604 29.4701 5.59604L26.6391 8.34206L27.3054 12.2081C27.422 12.8901 27.026 13.1851 26.4281 12.8721L22.9188 11.0351ZM55.0784 11.0351L51.5691 12.8731C50.9661 13.1881 50.5722 12.8981 50.6918 12.2091L51.357 8.34306L48.5281 5.59604C48.0357 5.11704 48.1874 4.65004 48.8557 4.55404L52.7781 3.98503L54.5227 0.468008C54.8302 -0.151996 55.3256 -0.159996 55.6362 0.468008L57.3787 3.98503L61.3021 4.55404C61.9754 4.65104 62.1242 5.11604 61.6307 5.59604L58.7998 8.34206L59.466 12.2081C59.5826 12.8901 59.1867 13.1851 58.5887 12.8721L55.0794 11.0341L55.0784 11.0351ZM38.9981 11.0351L35.4888 12.8731C34.8868 13.1881 34.4929 12.8981 34.6115 12.2091L35.2767 8.34306L32.4488 5.59604C31.9564 5.11704 32.1071 4.65004 32.7764 4.55404L36.6988 3.98503L38.4434 0.468008C38.7509 -0.151996 39.2463 -0.159996 39.5558 0.468008L41.2994 3.98503L45.2218 4.55404C45.8951 4.65104 46.0428 5.11604 45.5504 5.59604L42.7194 8.34206L43.3847 12.2081C43.5023 12.8901 43.1053 13.1851 42.5074 12.8721L38.9981 11.0351ZM71.1567 11.0351L67.6474 12.8731C67.0454 13.1881 66.6515 12.8981 66.7711 12.2091L67.4364 8.34306L64.6074 5.59604C64.115 5.11704 64.2657 4.65004 64.935 4.55404L68.8574 3.98503L70.602 0.468008C70.9095 -0.151996 71.4039 -0.159996 71.7145 0.468008L73.4581 3.98503L77.3804 4.55404C78.0537 4.65104 78.2014 5.11604 77.709 5.59604L74.8781 8.34206L75.5433 12.2081C75.6599 12.8901 75.264 13.1851 74.666 12.8721L71.1567 11.0351Z" fill="#FFE66F"/>
</g>
<defs>
<clipPath id="clip0_189_1021">
<rect width="78" height="13" fill="white"/>
</clipPath>
</defs>
</svg>
