<svg width="80" height="80" viewBox="0 0 80 80" fill="none" xmlns="http://www.w3.org/2000/svg">
<g clip-path="url(#clip0_439_3995)">
<path d="M57.3031 57.3033C70.9428 43.6636 74.0293 24.6357 64.1969 14.8033C54.3645 4.97093 35.3366 8.0574 21.6969 21.6971C8.05719 35.3369 4.97071 54.3648 14.8031 64.1971C24.6355 74.0295 43.6634 70.943 57.3031 57.3033Z" fill="#B1CC33"/>
<path d="M69.4999 29.1177C67.4326 36.1747 63.5907 42.5827 58.3416 47.7286C44.8163 61.2672 25.755 64.1366 15.767 54.1394C12.528 50.8231 10.5005 46.5107 10.0118 41.8989C10.0118 41.8989 4.20175 72.0264 31.7305 69.1706C31.7305 69.1706 58.7964 68.7373 68.921 34.9781L69.4999 29.1177Z" fill="#5C9E31"/>
<path d="M57.1323 33.0087C53.8571 32.8078 50.7843 31.3005 48.5584 28.8029C44.2543 24.343 43.2183 18.4319 46.1997 15.3424C47.039 14.5462 48.062 13.9872 49.1701 13.7191C50.2783 13.451 51.4344 13.4828 52.5272 13.8115C55.0657 14.4584 57.3759 15.8359 59.1913 17.7849C63.4954 22.2448 64.5314 28.1575 61.55 31.2468C60.9644 31.8311 60.2718 32.288 59.5131 32.5906C58.7544 32.8932 57.9449 33.0354 57.1323 33.0087Z" fill="#A57939"/>
</g>
<defs>
<clipPath id="clip0_439_3995">
<rect width="80" height="80" fill="white"/>
</clipPath>
</defs>
</svg>
