<svg width="80" height="80" viewBox="0 0 80 80" fill="none" xmlns="http://www.w3.org/2000/svg">
<g id="Frame 158">
<g id="Group 557">
<path id="Vector" d="M39.5 72C56.897 72 71 57.897 71 40.5C71 23.103 56.897 9 39.5 9C22.103 9 8 23.103 8 40.5C8 57.897 22.103 72 39.5 72Z" fill="#A7F1F5"/>
<path id="Vector_2" d="M33.1647 54.8253C29.5221 51.1222 23.0465 54.0765 21.4276 52.2552C19.8088 50.434 21.8323 48.6127 24.6655 48.5435C27.4986 48.4744 25.6773 42.9466 22.8115 40.5877C19.9456 38.229 18.797 41.9347 15.5591 40.5016C13.7627 39.7064 13.1019 33.44 13.5518 30.3483C13.9523 27.5948 16.25 24.3885 18.4087 24.9567C20.5673 25.5248 19.1778 27.4599 20.862 27.5718C22.5461 27.6836 22.0064 25.2538 24.4349 24.6697C26.7077 24.1232 31.6585 23.2142 27.5648 11.3423C16.0863 16.0459 8 27.3278 8 40.5001C8 43.2989 8.36693 46.0116 9.05193 48.595C11.7695 50.6638 15.581 50.1276 16.4299 52.8678C16.7721 53.9722 14.6997 55.4257 12.8948 57.3694C17.5274 64.6602 25.0734 69.918 33.8952 71.5024C36.5673 65.0382 35.6285 57.3301 33.1647 54.8253Z" fill="#5C9E31"/>
<path id="Vector_3" opacity="0.1" d="M42.5383 68.9617C25.1414 68.9617 11.0383 54.8588 11.0383 37.4617C11.0383 29.5365 13.9659 22.2955 18.7976 16.7593C12.1811 22.5339 8 31.0282 8 40.4999C8 57.8968 22.1031 71.9999 39.5 71.9999C48.9718 71.9999 57.4661 67.8188 63.2407 61.2023C57.7044 66.034 50.4635 68.9617 42.5383 68.9617Z" fill="black"/>
<g id="Group">
<path id="Vector_4" d="M59.1297 15.8657C59.5089 19.0469 60.347 22.7906 53.6661 21.8622C50.3217 21.3974 46.2201 22.4188 46.2457 26.0229C46.2623 28.3504 46.9203 34.6561 49.2139 34.7911C51.5075 34.9259 56.7691 35.8557 57.3087 31.7482C57.8484 27.6408 62.0209 25.7575 63.2401 27.3736C64.18 28.6195 67.8424 32.8968 70.5223 35.0139C69.1675 27.3001 65.0059 20.5543 59.1297 15.8657Z" fill="#5C9E31"/>
<path id="Vector_5" d="M57.5792 41.3715C55.018 42.6641 49.8891 45.3632 52.0477 50.7354C54.2063 56.1076 56.4999 60.5603 55.0158 65.012C54.6384 66.1438 55.0555 66.9033 55.8864 67.4075C64.4882 62.1578 70.375 52.8998 70.9523 42.2293C67.3098 40.6716 62.8701 38.7014 57.5792 41.3715Z" fill="#5C9E31"/>
</g>
<path id="Vector_6" opacity="0.2" d="M51.4779 11.3599C50.4775 12.8549 49.8933 14.6521 49.8933 16.5859C49.8933 21.7828 54.1063 25.9958 59.3032 25.9958C61.8696 25.9958 64.1947 24.9672 65.8924 23.3014C62.4278 17.9958 57.4073 13.7998 51.4779 11.3599Z" fill="white"/>
<g id="Group_2">
<path id="Vector_7" d="M42.1311 47.1698C41.0982 47.1698 40.1643 46.7375 39.5008 46.0444C38.8374 46.7376 37.9034 47.1698 36.8706 47.1698C34.8621 47.1698 33.2283 45.5358 33.2283 43.5274C33.2283 42.9686 33.6813 42.5156 34.2401 42.5156C34.7991 42.5156 35.2519 42.9687 35.2519 43.5274C35.2519 44.4199 35.978 45.146 36.8705 45.146C37.7628 45.146 38.4889 44.4199 38.4889 43.5274C38.4889 42.9686 38.9418 42.5156 39.5007 42.5156C40.0597 42.5156 40.5125 42.9687 40.5125 43.5274C40.5125 44.4199 41.2386 45.146 42.131 45.146C43.0234 45.146 43.7495 44.4199 43.7495 43.5274C43.7495 42.9686 44.2025 42.5156 44.7613 42.5156C45.3202 42.5156 45.7731 42.9687 45.7731 43.5274C45.7734 45.5358 44.1396 47.1698 42.1311 47.1698Z" fill="#5C9E31"/>
<path id="Vector_8" d="M27.351 40.6101C26.792 40.6101 26.3392 40.1571 26.3392 39.5983V38.4811C26.3392 37.9222 26.7922 37.4692 27.351 37.4692C27.91 37.4692 28.3629 37.9223 28.3629 38.4811V39.5983C28.363 40.1571 27.91 40.6101 27.351 40.6101Z" fill="#5C9E31"/>
<path id="Vector_9" d="M51.6499 40.6096C51.0909 40.6096 50.6381 40.1566 50.6381 39.5978V38.4806C50.6381 37.9217 51.091 37.4688 51.6499 37.4688C52.2088 37.4688 52.6617 37.9218 52.6617 38.4806V39.5978C52.6618 40.1566 52.2088 40.6096 51.6499 40.6096Z" fill="#5C9E31"/>
</g>
</g>
</g>
</svg>
