<svg width="80" height="80" viewBox="0 0 80 80" fill="none" xmlns="http://www.w3.org/2000/svg">
<g id="Frame 158">
<g id="Group 562">
<path id="Vector" d="M61.4662 21.4375H44.8685C44.4558 21.4375 44.0601 21.6089 43.7683 21.9139C43.4764 22.2189 43.3125 22.6326 43.3125 23.064C43.3125 23.4954 43.4764 23.9091 43.7683 24.2141C44.0601 24.5192 44.4558 24.6905 44.8685 24.6905H45.9056V58.8471C45.9056 60.8602 46.6707 62.7908 48.0325 64.2143C49.3943 65.6378 51.2413 66.4375 53.1671 66.4375C55.093 66.4375 56.94 65.6378 58.3018 64.2143C59.6635 62.7908 60.4286 60.8602 60.4286 58.8471V24.6905H61.4662C63.5115 24.6544 63.511 21.4734 61.4662 21.4375ZM57.3168 58.8474C57.1423 64.58 49.1912 64.5779 49.0179 58.8472V50.1508C52.8234 50.5059 53.511 47.6684 57.3168 48.0255V58.8474Z" fill="#5C9E31"/>
<path id="Vector_2" d="M36.1537 13H19.556C19.1433 13 18.7476 13.1706 18.4558 13.4743C18.1639 13.778 18 14.1899 18 14.6193C18 15.0488 18.1639 15.4607 18.4558 15.7644C18.7476 16.068 19.1433 16.2387 19.556 16.2387H20.5931V58.8806C20.5931 60.8848 21.3582 62.807 22.72 64.2241C24.0818 65.6413 25.9287 66.4375 27.8546 66.4375C29.7805 66.4375 31.6275 65.6413 32.9892 64.2241C34.351 62.807 35.1161 60.8848 35.1161 58.8806V16.2387H36.1537C38.199 16.2027 38.1985 13.0357 36.1537 13ZM32.0043 58.8809C31.8303 64.5871 23.8789 64.587 23.7054 58.8808V38.3477C27.5109 38.7013 28.1985 35.8763 32.0043 36.2318V58.8809Z" fill="#5C9E31"/>
</g>
</g>
</svg>
