<svg width="80" height="80" viewBox="0 0 80 80" fill="none" xmlns="http://www.w3.org/2000/svg">
<g id="Frame 157">
<g id="&#233;&#161;&#181;&#233;&#157;&#162;-1">
<g id="User">
<g id="group_fill">
<path id="&#229;&#189;&#162;&#231;&#138;&#182;" d="M43.1252 42.125C48.9241 42.125 53.6252 46.8261 53.6252 52.625V56.5625C53.6252 58.737 51.8623 60.5 49.6877 60.5H18.1877C16.0131 60.5 14.2502 58.737 14.2502 56.5625V52.625C14.2502 46.8261 18.9513 42.125 24.7502 42.125H43.1252ZM58.8752 42.1255C63.2246 42.1255 66.7502 45.6514 66.7502 50.0005V53.938C66.7502 56.1128 64.9873 57.8755 62.8127 57.8755H58.8752V52.625C58.8752 48.3318 56.8141 44.5203 53.6273 42.1255H58.8752ZM33.9377 15.875C40.4617 15.875 45.7502 21.1636 45.7502 27.6875C45.7502 34.2114 40.4617 39.5 33.9377 39.5C27.4139 39.5 22.1252 34.2114 22.1252 27.6875C22.1252 21.1636 27.4139 15.875 33.9377 15.875ZM56.2502 23.75C60.5996 23.75 64.1252 27.2758 64.1252 31.625C64.1252 35.9744 60.5996 39.5 56.2502 39.5C51.9009 39.5 48.3752 35.9744 48.3752 31.625C48.3752 27.2758 51.9009 23.75 56.2502 23.75Z" fill="#5C9E31"/>
</g>
</g>
</g>
</g>
</svg>
