<svg width="80" height="80" viewBox="0 0 80 80" fill="none" xmlns="http://www.w3.org/2000/svg">
<g id="Frame 157">
<g id="&#233;&#161;&#181;&#233;&#157;&#162;-1">
<g id="Group 558">
<path id="Vector" d="M65.594 34.0416H51.0478C49.6025 34.0416 48.5506 32.7187 48.9247 31.3716L51.5156 22.0404C52.4322 18.7392 50.4021 15.346 46.9811 14.4615C45.9056 14.1835 44.8002 14.7994 44.5121 15.8372L42.6943 22.3836C41.8373 25.4701 40.1753 28.2983 37.8462 30.5694C34.9047 33.4381 31.7522 35.5644 30.7152 36.4316L30.202 36.8608C29.6579 37.3157 28.9621 37.5662 28.2422 37.5662H21.5529V59.6861H28.2422C28.9621 59.6861 29.6579 59.9366 30.202 60.3915C32.3761 62.2097 35.1567 63.2106 38.0335 63.2106H61.3794C63.2461 63.2106 64.7594 61.7503 64.7594 59.949V59.1798C64.7594 57.3785 63.2461 55.9183 61.3794 55.9183H62.7843C64.651 55.9183 66.1642 54.458 66.1642 52.6567V51.8875C66.1642 50.0862 64.651 48.6259 62.7843 48.6259H64.1891C66.0558 48.6259 67.5691 47.1657 67.5691 45.3644V44.5952C67.5691 42.794 66.0559 41.3338 64.1895 41.3336H65.594C67.4606 41.3336 68.9739 39.8734 68.9739 38.0721V37.3029C68.9739 35.5018 67.4606 34.0416 65.594 34.0416Z" fill="#FFCF9D"/>
<path id="Vector_2" d="M22.9473 32.5264H10.3947V64.6053H22.9473V32.5264Z" fill="#5C9E31"/>
</g>
</g>
</g>
</svg>
