<svg width="30" height="30" viewBox="0 0 30 30" fill="none" xmlns="http://www.w3.org/2000/svg">
<g id="icon_clean_primary">
<g id="oSeHPo.tif">
<path id="Vector" d="M0.00602289 10.0844V3.04059C0.00602289 2.89805 0.00602289 2.75551 0.00602289 2.61298C0.00602289 2.34902 0.101043 2.14313 0.363684 2.0415C0.626324 1.93988 0.834847 2.0349 1.0183 2.2177C1.57877 2.77421 2.13838 3.33139 2.6971 3.88922C3.85456 5.04405 5.01465 6.19887 6.16486 7.35634C6.31927 7.51207 6.43674 7.54111 6.64527 7.45136C8.61111 6.60009 10.6707 6.24968 12.8061 6.35131C14.4315 6.41705 16.0307 6.78285 17.5231 7.43025C17.76 7.53451 17.8999 7.51405 18.0866 7.32532C19.7245 5.67557 21.3749 4.03638 23.0214 2.39455C23.0992 2.31668 23.1738 2.23551 23.2582 2.16622C23.449 2.00785 23.6588 1.94582 23.8984 2.05734C24.1241 2.16293 24.2151 2.34704 24.2158 2.58526C24.2158 3.22141 24.2158 3.85821 24.2158 4.49435C24.2158 8.58573 24.2204 12.6771 24.2079 16.7685C24.1999 19.3652 23.1626 21.5396 21.3531 23.3484C19.1438 25.5564 16.427 26.6828 13.3373 26.9527C10.7776 27.1771 8.3267 26.766 6.02431 25.6131C3.44674 24.3224 1.51653 22.4087 0.505564 19.6628C0.142619 18.6782 -0.0038814 17.6495 7.79952e-05 16.5963C0.0119562 14.4285 0.00668279 12.2561 0.00602289 10.0844ZM18.9181 8.17066C19.0064 8.22769 19.0917 8.28936 19.1735 8.35543C19.6011 8.73091 20.0393 9.09649 20.4451 9.49441C20.5035 9.54948 20.5492 9.61658 20.5791 9.69108C20.609 9.76557 20.6224 9.84567 20.6182 9.92583C20.6141 10.006 20.5926 10.0843 20.5551 10.1553C20.5177 10.2263 20.4653 10.2884 20.4016 10.3371C20.1534 10.5351 19.8076 10.4869 19.5872 10.2177C18.9597 9.45086 18.1354 8.94274 17.2538 8.54746C15.1989 7.6269 13.0397 7.30157 10.7993 7.53517C9.33767 7.68827 7.92812 8.03736 6.6202 8.72695C5.87062 9.12004 5.19158 9.63495 4.61081 10.2507C4.36598 10.5107 4.0103 10.5146 3.78659 10.3048C3.56289 10.0949 3.55958 9.75441 3.7912 9.4766C3.84648 9.40827 3.90693 9.34429 3.97201 9.28522C4.4148 8.8972 4.85893 8.51182 5.23903 8.18055L1.15755 4.0443C1.15425 4.12283 1.14699 4.2073 1.14699 4.29242C1.14699 8.41812 1.14852 12.5438 1.1516 16.6695C1.14756 17.1301 1.18512 17.5902 1.2638 18.0441C1.7409 20.5873 3.19796 22.476 5.30634 23.8796C7.59224 25.402 10.1355 25.9985 12.8701 25.8454C15.42 25.7029 17.7336 24.909 19.7179 23.2962C21.8606 21.5554 23.0999 19.3368 23.09 16.5045C23.0748 12.4448 23.086 8.38776 23.0854 4.32476C23.0854 4.22313 23.0735 4.12085 23.0662 3.99481L18.9181 8.17066Z" fill="#33915C"/>
<path id="Vector_2" d="M12.106 21.0945C11.2752 21.9425 10.2451 22.2777 9.08628 22.1431C7.91231 22.0072 6.93962 21.5096 6.46648 20.3423C6.37079 20.1073 6.35297 19.8302 6.34967 19.5722C6.34862 19.5055 6.36089 19.4394 6.38576 19.3775C6.41063 19.3157 6.4476 19.2595 6.49451 19.2121C6.54141 19.1648 6.59731 19.1273 6.6589 19.1019C6.7205 19.0765 6.78655 19.0636 6.85318 19.064C7.12968 19.0588 7.3349 19.1802 7.42135 19.4659C7.49988 19.7246 7.54475 20.0097 7.68531 20.2294C7.98886 20.6999 8.48446 20.9052 9.01568 20.9909C9.80756 21.119 10.5334 20.9784 11.1491 20.4254C10.9294 20.2776 10.7176 20.1614 10.5348 20.0083C9.6769 19.2963 9.66765 18.1243 10.5044 17.3687C11.3623 16.5967 12.8906 16.6066 13.7379 17.3892C14.6855 18.2656 14.4869 19.6487 13.3242 20.271C13.247 20.3126 13.1671 20.3475 13.0529 20.403C13.6944 20.985 14.4302 21.1124 15.2306 20.989C15.4444 20.956 15.6516 20.8702 15.8588 20.8002C16.231 20.6735 16.5392 20.7752 16.6659 21.0728C16.7926 21.3704 16.6487 21.6706 16.2898 21.8369C15.6186 22.1472 14.8697 22.2487 14.1401 22.1283C13.4106 22.0078 12.7341 21.6708 12.1984 21.1612C12.1689 21.1372 12.138 21.115 12.106 21.0945ZM12.139 17.8505C11.844 17.9646 11.5497 18.0293 11.3134 18.1804C10.9142 18.4384 10.9175 18.8568 11.2844 19.1637C11.7259 19.5359 12.5184 19.5326 12.9579 19.1558C13.2918 18.87 13.3096 18.4668 12.9513 18.2108C12.7223 18.0498 12.4293 17.9759 12.139 17.8505Z" fill="#33915C"/>
<path id="Vector_3" d="M6.89884 12.3221C8.16056 12.332 9.24544 13.3727 9.31341 14.6384C9.33651 15.07 9.16427 15.33 8.82838 15.3702C8.46874 15.4138 8.24701 15.2013 8.1863 14.7532C8.08006 13.9739 7.60492 13.4796 6.94172 13.4598C6.62723 13.4534 6.32091 13.5602 6.07863 13.7608C5.83635 13.9614 5.67426 14.2424 5.62192 14.5526C5.60476 14.6608 5.59883 14.771 5.57837 14.8779C5.51238 15.2171 5.2768 15.4058 4.95543 15.3715C4.66442 15.3425 4.45126 15.1122 4.45588 14.7776C4.45903 14.1571 4.69829 13.5611 5.12503 13.1107C5.59818 12.6039 6.18746 12.3155 6.89884 12.3221Z" fill="#33915C"/>
<path id="Vector_4" d="M17.3365 12.3267C18.6207 12.3267 19.7405 13.4135 19.7709 14.6957C19.7801 15.0916 19.5861 15.3457 19.2548 15.3695C18.9077 15.3945 18.6669 15.1992 18.6431 14.7934C18.5929 13.9467 17.9172 13.4689 17.3939 13.4544C16.6872 13.4346 16.1467 13.9441 16.0391 14.7492C15.9844 15.1649 15.8412 15.3431 15.5304 15.3695C15.1536 15.4038 14.9153 15.1596 14.9133 14.736C14.9087 13.4452 16.0306 12.3293 17.3365 12.3267Z" fill="#33915C"/>
<path id="Vector_5" d="M17.3191 20.2012C17.1698 20.1909 17.0299 20.1246 16.9274 20.0156C16.8249 19.9065 16.7673 19.7628 16.7661 19.6132C16.7773 19.3202 17.065 19.047 17.3534 19.0569C17.5013 19.0669 17.6395 19.1338 17.7391 19.2436C17.8386 19.3533 17.8918 19.4974 17.8873 19.6456C17.8829 19.7937 17.8212 19.9343 17.7153 20.0379C17.6093 20.1415 17.4673 20.2001 17.3191 20.2012Z" fill="#33915C"/>
</g>
</g>
</svg>
