<svg width="30" height="30" viewBox="0 0 30 30" fill="none" xmlns="http://www.w3.org/2000/svg">
<g id="leaves_svgrepo.com">
<g id="Group">
<g id="Group_2">
<g id="Group_3">
<g id="Group_4">
<path id="Vector" d="M13.9387 16.8685C12.9726 16.8685 12.0066 16.4544 11.3166 15.7644C10.2125 14.6604 8.97049 12.3143 12.4206 8.86415C15.1807 6.10404 20.977 5.13801 21.253 5C21.529 5 21.667 5 21.805 5.138C21.943 5.27601 22.081 5.55202 21.943 5.69003C21.943 5.96604 20.8389 11.7623 18.0788 14.5224C16.6988 16.0404 15.3187 16.8685 13.9387 16.8685ZM20.5629 6.51806C18.7689 6.93207 15.3187 7.89811 13.3867 9.69218C11.3166 11.7623 11.0406 13.4183 12.2826 14.6604C13.6627 16.0404 15.3187 15.6264 17.2508 13.5563C19.0449 11.7623 20.1489 8.17412 20.5629 6.51806Z" fill="#33915C"/>
</g>
<g id="Group_5">
<path id="Vector_2" d="M10.4885 24.321H9.1084C9.1084 21.4229 10.0744 18.3868 11.8685 15.2126L13.1106 15.9027C11.3165 18.8008 10.4885 21.6989 10.4885 24.321Z" fill="#33915C"/>
</g>
<g id="Group_6">
<g id="Group_7">
<path id="Vector_3" d="M6.48625 15.2124C5.52021 15.2124 4.55417 14.7984 3.45013 13.9703C1.24205 12.1763 0.138005 8.17411 0 8.03611C0 7.76009 5.24392e-07 7.62209 0.138006 7.34608C0.276011 7.20807 0.414016 7.07007 0.690026 7.07007C0.828032 7.07007 5.10619 7.34608 7.31428 9.00214C8.55633 9.96818 9.24635 10.9342 9.38436 11.9003C9.52236 12.5903 9.24635 13.2803 8.69433 13.9703C8.14231 14.7984 7.31428 15.2124 6.48625 15.2124ZM1.65606 8.58813C2.07008 9.83017 3.03612 11.7622 4.27816 12.8663C5.65822 13.9703 6.76226 14.2463 7.59029 13.2803C7.8663 12.8663 8.00431 12.5903 7.8663 12.1763C7.7283 11.6242 7.31428 10.9342 6.34824 10.1062C5.2442 9.14015 3.03612 8.72613 1.65606 8.58813Z" fill="#33915C"/>
</g>
<g id="Group_8">
<path id="Vector_4" d="M11.1785 20.1803H9.79848C9.79848 18.1102 9.10846 16.0401 7.45239 14.1081L8.55644 13.28C10.2125 15.4881 11.1785 17.8342 11.1785 20.1803Z" fill="#33915C"/>
</g>
</g>
</g>
<g id="Group_9">
<path id="Vector_5" d="M12.5581 25.0107H7.17587C6.76185 25.0107 6.48584 24.7347 6.48584 24.3206C6.48584 23.9066 6.76185 23.6306 7.17587 23.6306H12.5581C12.9721 23.6306 13.2481 23.9066 13.2481 24.3206C13.2481 24.7347 12.9721 25.0107 12.5581 25.0107Z" fill="#33915C"/>
</g>
</g>
</g>
</g>
</svg>
