<svg width="30" height="30" viewBox="0 0 30 30" fill="none" xmlns="http://www.w3.org/2000/svg">
<g id="wind_svgrepo.com">
<path id="Vector" d="M8.75598 11.1072C8.78657 11.1034 8.81343 11.0974 8.83955 11.09L8.83581 11.0907C10.7556 11.0444 12.2934 9.47515 12.2934 7.54574C12.2934 5.58717 10.7086 4 8.75299 4C7.12939 4 5.76022 5.09473 5.34312 6.58775L5.33715 6.61241L5.33044 6.62586C5.25209 6.90384 5.20733 7.22367 5.20733 7.55321C5.20733 7.86257 5.45803 8.11365 5.76693 8.11365C6.07584 8.11365 6.32654 7.86257 6.32654 7.55321C6.32728 7.32978 6.35713 7.11382 6.41309 6.90833L6.40936 6.92551L6.41458 6.9143C6.70259 5.87188 7.64124 5.11939 8.75598 5.11939C10.0953 5.11939 11.1809 6.20665 11.1809 7.54798C11.1809 8.8893 10.0953 9.97656 8.75598 9.97656C8.7418 9.97656 8.73061 9.98329 8.71643 9.98478L0.559607 9.97656C0.250704 9.97656 0 10.2276 0 10.537C0 10.8464 0.250704 11.0974 0.55886 11.0974L8.75523 11.1057L8.75598 11.1072ZM17.3135 7.07795C15.1683 7.08019 13.3604 8.52464 12.8031 10.4944L12.7948 10.5273L12.7837 10.5497C12.6807 10.9159 12.6217 11.3366 12.6217 11.7707C12.6217 11.773 12.6217 11.7745 12.6217 11.7767C12.6217 12.0861 12.8724 12.3371 13.1813 12.3371C13.4902 12.3371 13.741 12.0861 13.741 11.7767C13.741 11.7752 13.741 11.7737 13.741 11.7722C13.741 11.4434 13.7857 11.1251 13.87 10.824L13.8641 10.8486L13.8693 10.8382C14.2931 9.30478 15.6742 8.19809 17.3127 8.19809C19.2833 8.19809 20.88 9.79797 20.88 11.7707C20.88 13.7435 19.2826 15.3434 17.3127 15.3434C17.2911 15.3464 17.2732 15.3501 17.2553 15.3553L17.259 15.3546L2.08248 15.3396C1.77358 15.3396 1.52288 15.5907 1.52288 15.9001C1.52288 16.2094 1.77358 16.4605 2.08174 16.4605L17.3127 16.4762C17.353 16.4725 17.3896 16.4643 17.4254 16.453L17.4217 16.4538C19.9623 16.3963 22 14.3196 22 11.7662C22 9.177 19.9041 7.07795 17.3187 7.07795C17.3165 7.07795 17.315 7.07795 17.3135 7.07795ZM16.007 17.8683C15.9824 17.8609 15.9533 17.8549 15.9227 17.8512H15.9204L2.08248 17.8646C1.77358 17.8646 1.52288 18.1157 1.52288 18.4251C1.52288 18.7344 1.77358 18.9855 2.08248 18.9855L15.8772 18.972C15.8921 18.9735 15.9048 18.981 15.9204 18.981C17.5455 18.981 18.8625 20.2999 18.8625 21.9274C18.8625 23.555 17.5455 24.8739 15.9204 24.8739C14.5684 24.8739 13.4298 23.9607 13.0851 22.7173L13.0799 22.6964L13.0746 22.6852C13.0112 22.4565 12.9739 22.1942 12.9739 21.923C12.9739 21.9222 12.9739 21.9207 12.9739 21.92C12.9739 21.6106 12.7232 21.3595 12.4143 21.3595C12.1054 21.3595 11.8547 21.6106 11.8547 21.92C11.8547 21.9207 11.8547 21.9222 11.8547 21.923C11.8547 21.9252 11.8547 21.9274 11.8547 21.9304C11.8547 22.3056 11.9054 22.6695 12.0017 23.014L11.995 22.9856L12.0024 22.996C12.4852 24.7409 14.0566 26 15.9219 26C18.1641 26 19.9824 24.1797 19.9824 21.9334C19.9824 19.7178 18.2126 17.9162 16.0122 17.8683H16.007Z" fill="#33915C"/>
</g>
</svg>
