<svg width="27" height="27" viewBox="0 0 27 27" fill="none" xmlns="http://www.w3.org/2000/svg">
<g id="icon_clean_primary">
<path id="Vector" d="M9.3372 25.875C9.17616 25.8752 9.02025 25.8182 8.89711 25.7142C8.77398 25.6102 8.69158 25.4659 8.66453 25.3068C8.22835 22.7486 7.7206 21.3547 6.91231 20.4956C6.07606 19.6065 4.80909 19.1564 2.7645 18.6381C2.61744 18.6008 2.48698 18.5155 2.39379 18.3956C2.3006 18.2756 2.25 18.128 2.25 17.976C2.25 17.824 2.3006 17.6763 2.39379 17.5564C2.48698 17.4365 2.61744 17.3511 2.7645 17.3139C4.80909 16.7942 6.07606 16.3435 6.91231 15.4563C7.7206 14.5972 8.22903 13.2034 8.66453 10.6458C8.69138 10.4867 8.7736 10.3423 8.89661 10.2381C9.01962 10.1339 9.17547 10.0768 9.33652 10.0768C9.49757 10.0768 9.65342 10.1339 9.77642 10.2381C9.89943 10.3423 9.98166 10.4867 10.0085 10.6458C10.4447 13.2034 10.9524 14.5972 11.7607 15.4563C12.5977 16.3455 13.8639 16.7962 15.9092 17.3139C16.0563 17.3511 16.1867 17.4365 16.2799 17.5564C16.3731 17.6763 16.4237 17.824 16.4237 17.976C16.4237 18.128 16.3731 18.2756 16.2799 18.3956C16.1867 18.5155 16.0563 18.6008 15.9092 18.6381C13.8639 19.1585 12.597 19.6085 11.7607 20.4956C10.9524 21.3547 10.4454 22.7493 10.0092 25.3068C9.98216 25.4658 9.89986 25.61 9.77687 25.714C9.65387 25.818 9.49813 25.875 9.3372 25.875ZM5.32842 17.9736C6.41479 18.3731 7.23671 18.8477 7.90462 19.558C8.5105 20.2027 8.9644 21.0092 9.3372 22.1599C9.70864 21.0092 10.1632 20.2027 10.7698 19.558C11.439 18.8477 12.2589 18.3731 13.346 17.9736C12.2589 17.5748 11.4377 17.0995 10.7698 16.3892C10.1632 15.7452 9.70864 14.9366 9.3372 13.7893C8.9644 14.9401 8.5105 15.7466 7.90394 16.3913C7.23467 17.1015 6.41479 17.5748 5.32842 17.9743V17.9736ZM17.1905 14.0557C17.0295 14.0559 16.8736 13.9989 16.7504 13.8949C16.6273 13.7909 16.5449 13.6466 16.5178 13.4875C15.9092 9.9158 15.0021 9.52107 12.2269 8.81493C12.0798 8.77768 11.9494 8.69233 11.8562 8.57241C11.763 8.45248 11.7124 8.30483 11.7124 8.15284C11.7124 8.00084 11.763 7.85319 11.8562 7.73327C11.9494 7.61334 12.0798 7.528 12.2269 7.49074C15.0021 6.7846 15.9092 6.39124 16.5178 2.81819C16.5449 2.65911 16.6273 2.51477 16.7504 2.41077C16.8736 2.30676 17.0295 2.2498 17.1905 2.25C17.3511 2.25045 17.5063 2.3077 17.6289 2.41165C17.7515 2.5156 17.8335 2.65958 17.8605 2.81819C18.4697 6.39056 19.3762 6.7846 22.1514 7.49074C22.2984 7.528 22.4289 7.61334 22.5221 7.73327C22.6153 7.85319 22.6659 8.00084 22.6659 8.15284C22.6659 8.30483 22.6153 8.45248 22.5221 8.57241C22.4289 8.69233 22.2984 8.77768 22.1514 8.81493C19.3762 9.52107 18.4697 9.91512 17.8605 13.4875C17.8335 13.6461 17.7515 13.7901 17.6289 13.894C17.5063 13.998 17.3511 14.0552 17.1905 14.0557ZM14.662 8.15523C15.2747 8.41747 15.7688 8.72956 16.1955 9.15776C16.6017 9.56478 16.9247 10.0578 17.1905 10.7005C17.4563 10.0578 17.7787 9.56478 18.1842 9.15776C18.6115 8.72956 19.1056 8.41747 19.7183 8.15523C19.1056 7.89367 18.6115 7.58157 18.1849 7.15338C17.7787 6.74158 17.4556 6.24987 17.1898 5.60861C16.924 6.25056 16.6017 6.74363 16.1961 7.15065C15.7688 7.57884 15.2747 7.8882 14.6613 8.15249V8.15523H14.662ZM21.1086 25.847C20.9478 25.8469 20.7922 25.7898 20.6694 25.6858C20.5465 25.5818 20.4643 25.4377 20.4373 25.2788C20.1211 23.424 19.5472 22.9787 17.9838 22.5813C17.8364 22.5443 17.7056 22.459 17.6122 22.339C17.5187 22.2189 17.468 22.0711 17.468 21.9188C17.468 21.7666 17.5187 21.6187 17.6122 21.4987C17.7056 21.3787 17.8364 21.2934 17.9838 21.2564C19.5459 20.8589 20.1197 20.4137 20.4373 18.5589C20.4646 18.4002 20.5469 18.2562 20.6698 18.1525C20.7927 18.0487 20.9483 17.9918 21.109 17.9918C21.2697 17.9918 21.4252 18.0487 21.5481 18.1525C21.671 18.2562 21.7534 18.4002 21.7806 18.5589C22.0969 20.4137 22.6707 20.8589 24.2341 21.2564C24.3815 21.2934 24.5123 21.3787 24.6058 21.4987C24.6992 21.6187 24.75 21.7666 24.75 21.9188C24.75 22.0711 24.6992 22.2189 24.6058 22.339C24.5123 22.459 24.3815 22.5443 24.2341 22.5813C22.6721 22.9787 22.0982 23.424 21.7806 25.2788C21.7536 25.4378 21.6713 25.582 21.5483 25.686C21.4253 25.79 21.2696 25.847 21.1086 25.847ZM20.0182 21.9188C20.468 22.1934 20.8422 22.5744 21.1086 23.0286C21.3754 22.5743 21.75 22.1931 22.1991 21.9188C21.7498 21.6448 21.3752 21.2635 21.1086 20.8091C20.8428 21.2631 20.4691 21.6443 20.0209 21.9188H20.0182Z" fill="#33915C"/>
</g>
</svg>
