<svg xmlns="http://www.w3.org/2000/svg" width="298" height="85" style="shape-rendering:geometricPrecision;text-rendering:geometricPrecision;image-rendering:optimizeQuality;fill-rule:evenodd;clip-rule:evenodd"><path fill="#94D591" d="M58.5-.5h9a86.758 86.758 0 0 1 1 18c6.348.505 12.181 2.505 17.5 6 9.06-11.098 20.226-19.098 33.5-24h10c1.856 5.782 2.523 11.782 2 18 6.276.424 11.943 2.424 17 6 8.938-11.463 20.272-19.463 34-24h9a100.852 100.852 0 0 1 3 18c19.209 3.027 29.209 14.36 30 34 3.035 1.421 5.535 3.421 7.5 6 .307 4.12-.36 8.12-2 12a109.01 109.01 0 0 1-8.5 9l-12 6h-23a227.56 227.56 0 0 0-12-5.5c-2.938-1.92-3.605-4.42-2-7.5 1.223-1.114 2.556-1.28 4-.5 13.426 9.49 27.092 9.824 41 1 3.657-2.993 6.323-6.66 8-11a152.014 152.014 0 0 1-8-5.5c-.11-20.276-10.276-30.943-30.5-32-.17-5.696-.67-11.362-1.5-17-12.98 3.652-23.313 10.985-31 22 4.957 6.807 7.624 14.474 8 23 3.946 1.77 6.613 4.603 8 8.5-3.427 12.257-11.094 20.424-23 24.5h-24c-4.817-1.997-9.317-4.664-13.5-8-1.583-4.6-.083-6.434 4.5-5.5 16.152 10.87 31.319 9.704 45.5-3.5 2.37-2.349 2.87-5.015 1.5-8a40.832 40.832 0 0 1-6.5-4c.643-10.872-3.19-19.705-11.5-26.5a188.079 188.079 0 0 0-19.5-6.5l-1-16c-12.246 3.79-22.246 10.79-30 21 3.55 7.495 6.05 15.495 7.5 24 3.915 1.745 6.581 4.579 8 8.5-3.474 12.64-11.474 20.807-24 24.5h-23c-4.817-1.997-9.317-4.664-13.5-8-1.583-4.6-.083-6.434 4.5-5.5 16.105 10.84 31.272 9.672 45.5-3.5a60.692 60.692 0 0 1 3.5-6.5 113.321 113.321 0 0 1-8.5-5.5c-.019-20.387-10.186-31.054-30.5-32a1257.65 1257.65 0 0 0-2-17 108.671 108.671 0 0 0-25.5 15c-12.113 17.573-20.446 36.907-25 58-1.726 1.076-3.56 1.243-5.5.5C6.971 59.925 13.471 41.091 24 23.5c9.01-11.705 20.51-19.705 34.5-24Z" style="opacity:.781"/><path fill="#94D591" d="M265.5 23.5h9v15h14v9h-14v15h-9v-15h-14v-9h14v-15Z" style="opacity:.897"/><path fill="#94D591" d="M76.5 44.5c4.593-1.082 7.593.585 9 5-1.876 6.002-5.376 7.335-10.5 4-.906-3.344-.406-6.344 1.5-9Z" style="opacity:.742"/><path fill="#94D591" d="M138.5 44.5c7.796-1.095 10.13 2.072 7 9.5-5.29 2.69-8.29 1.19-9-4.5.224-1.955.891-3.621 2-5Z" style="opacity:.727"/><path fill="#94D591" d="M200.5 44.5c7.796-1.095 10.13 2.072 7 9.5-6.765 2.243-9.598-.257-8.5-7.5.717-.544 1.217-1.21 1.5-2Z" style="opacity:.746"/></svg>