<?xml version="1.0" encoding="UTF-8"?>
<svg width="78px" height="13px" viewBox="0 0 78 13" version="1.1" xmlns="http://www.w3.org/2000/svg" xmlns:xlink="http://www.w3.org/1999/xlink">
    <title>five_stars</title>
    <g id="Page-1" stroke="none" stroke-width="1" fill="none" fill-rule="evenodd">
        <g id="five_stars" transform="translate(-0, 0)" fill="#FFE66F" fill-rule="nonzero">
            <g id="Group">
                <path d="M6.8394802,11.0350998 L3.3301702,12.8730998 C2.7282002,13.1880998 2.3342602,12.8980998 2.4528402,12.2090998 L3.1191302,8.34305981 L0.290173197,5.59603981 C-0.202255803,5.11703981 -0.0515120026,4.65003981 0.617789197,4.55403981 L4.5401402,3.98502981 L6.2837302,0.468007808 C6.5922602,-0.151996192 7.0877002,-0.159996192 7.3972302,0.468007808 L9.1408302,3.98502981 L13.0632002,4.55403981 C13.7365002,4.65103981 13.8842002,5.11603981 13.3918002,5.59603981 L10.5608002,8.34205981 L11.2261002,12.2080998 C11.3437002,12.8900998 10.9467002,13.1850998 10.3488002,12.8720998 L6.8394802,11.0350998 Z M22.9188002,11.0350998 L19.4095002,12.8730998 C18.8065002,13.1880998 18.4126002,12.8980998 18.5321002,12.2090998 L19.1974002,8.34305981 L16.3685002,5.59603981 C15.8760002,5.11703981 16.0278002,4.65003981 16.6961002,4.55403981 L20.6184002,3.98502981 L22.3630002,0.468007808 C22.6706002,-0.151996192 23.1660002,-0.159996192 23.4755002,0.468007808 L25.2191002,3.98502981 L29.1415002,4.55403981 C29.8148002,4.65103981 29.9635002,5.11603981 29.4701002,5.59603981 L26.6391002,8.34205981 L27.3054002,12.2080998 C27.4220002,12.8900998 27.0260002,13.1850998 26.4281002,12.8720998 L22.9188002,11.0350998 Z M55.0784002,11.0350998 L51.5691002,12.8730998 C50.9661002,13.1880998 50.5722002,12.8980998 50.6918002,12.2090998 L51.3570002,8.34305981 L48.5281002,5.59603981 C48.0357002,5.11703981 48.1874002,4.65003981 48.8557002,4.55403981 L52.7781002,3.98502981 L54.5227002,0.468007808 C54.8302002,-0.151996192 55.3256002,-0.159996192 55.6362002,0.468007808 L57.3787002,3.98502981 L61.3021002,4.55403981 C61.9754002,4.65103981 62.1242002,5.11603981 61.6307002,5.59603981 L58.7998002,8.34205981 L59.4660002,12.2080998 C59.5826002,12.8900998 59.1867002,13.1850998 58.5887002,12.8720998 L55.0794002,11.0340998 L55.0784002,11.0350998 Z M39.5558002,0.468007808 L41.2994002,3.98502981 L45.2218002,4.55403981 C45.8951002,4.65103981 46.0428002,5.11603981 45.5504002,5.59603981 L42.7194002,8.34205981 L43.3847002,12.2080998 C43.5023002,12.8900998 43.1053002,13.1850998 42.5074002,12.8720998 L38.9981002,11.0350998 L35.4888002,12.8730998 C34.8868002,13.1880998 34.4929002,12.8980998 34.6115002,12.2090998 L35.2767002,8.34305981 L32.4488002,5.59603981 C31.9564002,5.11703981 32.1071002,4.65003981 32.7764002,4.55403981 L36.6988002,3.98502981 L38.4434002,0.468007808 C38.7509002,-0.151996192 39.2463002,-0.159996192 39.5558002,0.468007808 Z M71.7145002,0.468007808 L73.4581002,3.98502981 L77.3804002,4.55403981 C78.0537002,4.65103981 78.2014002,5.11603981 77.7090002,5.59603981 L74.8781002,8.34205981 L75.5433002,12.2080998 C75.6599002,12.8900998 75.2640002,13.1850998 74.6660002,12.8720998 L71.1567002,11.0350998 L67.6474002,12.8730998 C67.0454002,13.1880998 66.6515002,12.8980998 66.7711002,12.2090998 L67.4364002,8.34305981 L64.6074002,5.59603981 C64.1150002,5.11703981 64.2657002,4.65003981 64.9350002,4.55403981 L68.8574002,3.98502981 L70.6020002,0.468007808 C70.9095002,-0.151996192 71.4039002,-0.159996192 71.7145002,0.468007808 Z M71.438416,2.32400525 C71.2233853,1.88923346 70.8811086,1.89477192 70.6682241,2.32400525 L69.4604246,4.75886551 L66.7449182,5.15279533 C66.2815569,5.21925683 66.1772261,5.54256438 66.5181183,5.87417961 L68.4766558,7.7759618 L68.0160637,10.4524498 C67.9332638,10.9294496 68.2059637,11.1302187 68.6227327,10.9121419 L71.052247,9.63968094 L73.4817612,10.9114496 C73.895761,11.1281418 74.1698455,10.9239111 74.0891225,10.4517575 L73.6285996,7.77526949 L75.5884525,5.87417961 C75.9293447,5.54187207 75.8270909,5.21994914 75.3609603,5.15279533 L72.6455231,4.75886551 Z" id="Vector"></path>
                <path d="M70.322899,11.2474473 L67.6474002,12.8730998 C67.0454002,13.1880998 66.6515002,12.8980998 66.7711002,12.2090998 L67.4364002,8.34305981 L64.6074002,5.59603981 C64.1150002,5.11703981 64.2657002,4.65003981 64.9350002,4.55403981 L68.8574002,3.98502981 L70.6168778,0.680355316 C70.4208919,0.226785105 70.322899,3.74914911 70.322899,11.2474473 Z" id="Vector-path-Copy-2"></path>
            </g>
        </g>
    </g>
</svg>