<?xml version="1.0" encoding="UTF-8"?>
<svg width="62px" height="13px" viewBox="0 0 62 13" version="1.1" xmlns="http://www.w3.org/2000/svg" xmlns:xlink="http://www.w3.org/1999/xlink">
    <title>Vector</title>
    <g id="Page-1" stroke="none" stroke-width="1" fill="none" fill-rule="evenodd">
        <g id="five_stars" transform="translate(0.0786, 0)" fill="#FFE66F" fill-rule="nonzero">
            <path d="M6.84022305,11.0350998 L3.33092305,12.8730998 C2.72792305,13.1880998 2.33402305,12.8980998 2.45352305,12.2090998 L3.11882305,8.34305981 L0.289923051,5.59603981 C-0.202576949,5.11703981 -0.0507769494,4.65003981 0.617523051,4.55403981 L4.53982305,3.98502981 L6.28442305,0.468007808 C6.59202305,-0.151996192 7.08742305,-0.159996192 7.39692305,0.468007808 L9.14052305,3.98502981 L13.0629231,4.55403981 C13.7362231,4.65103981 13.8849231,5.11603981 13.3915231,5.59603981 L10.5605231,8.34205981 L11.2268231,12.2080998 C11.3434231,12.8900998 10.9474231,13.1850998 10.3495231,12.8720998 L6.84022305,11.0350998 Z M38.9998231,11.0350998 L35.4905231,12.8730998 C34.8875231,13.1880998 34.4936231,12.8980998 34.6132231,12.2090998 L35.2784231,8.34305981 L32.4495231,5.59603981 C31.9571231,5.11703981 32.1088231,4.65003981 32.7771231,4.55403981 L36.6995231,3.98502981 L38.4441231,0.468007808 C38.7516231,-0.151996192 39.2470231,-0.159996192 39.5576231,0.468007808 L41.3001231,3.98502981 L45.2235231,4.55403981 C45.8968231,4.65103981 46.0456231,5.11603981 45.5521231,5.59603981 L42.7212231,8.34205981 L43.3874231,12.2080998 C43.5040231,12.8900998 43.1081231,13.1850998 42.5101231,12.8720998 L39.0008231,11.0340998 L38.9998231,11.0350998 Z M22.9195231,11.0350998 L19.4102231,12.8730998 C18.8082231,13.1880998 18.4143231,12.8980998 18.5329231,12.2090998 L19.1981231,8.34305981 L16.3702231,5.59603981 C15.8778231,5.11703981 16.0285231,4.65003981 16.6978231,4.55403981 L20.6202231,3.98502981 L22.3648231,0.468007808 C22.6723231,-0.151996192 23.1677231,-0.159996192 23.4772231,0.468007808 L25.2208231,3.98502981 L29.1432231,4.55403981 C29.8165231,4.65103981 29.9642231,5.11603981 29.4718231,5.59603981 L26.6408231,8.34205981 L27.3061231,12.2080998 C27.4237231,12.8900998 27.0267231,13.1850998 26.4288231,12.8720998 L22.9195231,11.0350998 Z M55.0781231,11.0350998 L51.5688231,12.8730998 C50.9668231,13.1880998 50.5729231,12.8980998 50.6925231,12.2090998 L51.3578231,8.34305981 L48.5288231,5.59603981 C48.0364231,5.11703981 48.1871231,4.65003981 48.8564231,4.55403981 L52.7788231,3.98502981 L54.5234231,0.468007808 C54.8309231,-0.151996192 55.3253231,-0.159996192 55.6359231,0.468007808 L57.3795231,3.98502981 L61.3018231,4.55403981 C61.9751231,4.65103981 62.1228231,5.11603981 61.6304231,5.59603981 L58.7995231,8.34205981 L59.4647231,12.2080998 C59.5813231,12.8900998 59.1854231,13.1850998 58.5874231,12.8720998 L55.0781231,11.0350998 Z" id="Vector"></path>
        </g>
    </g>
</svg>