<?xml version="1.0" encoding="UTF-8"?>
<svg width="30px" height="13px" viewBox="0 0 30 13" version="1.1" xmlns="http://www.w3.org/2000/svg" xmlns:xlink="http://www.w3.org/1999/xlink">
    <title>Vector-path</title>
    <g id="Page-1" stroke="none" stroke-width="1" fill="none" fill-rule="evenodd">
        <g id="five_stars" transform="translate(0.0786, 0)" fill="#FFE66F" fill-rule="nonzero">
            <path d="M6.84022305,11.0350998 L3.33092305,12.8730998 C2.72792305,13.1880998 2.33402305,12.8980998 2.45352305,12.2090998 L3.11882305,8.34305981 L0.289923051,5.59603981 C-0.202576949,5.11703981 -0.0507769494,4.65003981 0.617523051,4.55403981 L4.53982305,3.98502981 L6.28442305,0.468007808 C6.59202305,-0.151996192 7.08742305,-0.159996192 7.39692305,0.468007808 L9.14052305,3.98502981 L13.0629231,4.55403981 C13.7362231,4.65103981 13.8849231,5.11603981 13.3915231,5.59603981 L10.5605231,8.34205981 L11.2268231,12.2080998 C11.3434231,12.8900998 10.9474231,13.1850998 10.3495231,12.8720998 L6.84022305,11.0350998 Z M22.9195231,11.0350998 L19.4102231,12.8730998 C18.8082231,13.1880998 18.4143231,12.8980998 18.5329231,12.2090998 L19.1981231,8.34305981 L16.3702231,5.59603981 C15.8778231,5.11703981 16.0285231,4.65003981 16.6978231,4.55403981 L20.6202231,3.98502981 L22.3648231,0.468007808 C22.6723231,-0.151996192 23.1677231,-0.159996192 23.4772231,0.468007808 L25.2208231,3.98502981 L29.1432231,4.55403981 C29.8165231,4.65103981 29.9642231,5.11603981 29.4718231,5.59603981 L26.6408231,8.34205981 L27.3061231,12.2080998 C27.4237231,12.8900998 27.0267231,13.1850998 26.4288231,12.8720998 L22.9195231,11.0350998 Z" id="Vector"></path>
        </g>
    </g>
</svg>